<svg width="871" height="54" viewBox="0 0 871 54" fill="none" xmlns="http://www.w3.org/2000/svg">
<rect width="870.001" height="53.7361" fill="#F6C25B"/>
<g filter="url(#filter0_d)">
<path d="M28.5817 29.19V31.368H21.2737V29.19H23.8297V23.736C23.7217 23.88 23.5477 24.03 23.3077 24.186C23.0797 24.33 22.8277 24.468 22.5517 24.6C22.2757 24.732 21.9877 24.84 21.6877 24.924C21.3997 25.008 21.1417 25.05 20.9137 25.05V22.8C21.1297 22.8 21.3937 22.734 21.7057 22.602C22.0177 22.458 22.3237 22.29 22.6237 22.098C22.9237 21.906 23.1817 21.72 23.3977 21.54C23.6257 21.348 23.7697 21.198 23.8297 21.09H26.2957V29.19H28.5817ZM30.4922 25.536C30.4922 24.912 30.6122 24.33 30.8522 23.79C31.0922 23.25 31.4162 22.782 31.8242 22.386C32.2442 21.978 32.7362 21.66 33.3002 21.432C33.8762 21.204 34.4942 21.09 35.1542 21.09C35.8742 21.09 36.5222 21.222 37.0982 21.486C37.6862 21.75 38.1842 22.134 38.5922 22.638C39.0002 23.142 39.3122 23.76 39.5282 24.492C39.7562 25.212 39.8702 26.034 39.8702 26.958C39.8702 28.122 39.7502 29.154 39.5102 30.054C39.2822 30.942 38.9522 31.686 38.5202 32.286C38.1002 32.898 37.5842 33.36 36.9722 33.672C36.3602 33.984 35.6762 34.14 34.9202 34.14C34.1162 34.14 33.3722 33.966 32.6882 33.618C32.0042 33.27 31.4282 32.772 30.9602 32.124L32.3462 30.612C32.6342 31.068 33.0062 31.422 33.4622 31.674C33.9182 31.926 34.4162 32.052 34.9562 32.052C35.7602 32.052 36.3962 31.734 36.8642 31.098C37.3442 30.462 37.5962 29.562 37.6202 28.398C37.3802 28.83 37.0262 29.172 36.5582 29.424C36.0902 29.676 35.5502 29.802 34.9382 29.802C34.3022 29.802 33.7142 29.694 33.1742 29.478C32.6342 29.262 32.1662 28.962 31.7702 28.578C31.3742 28.194 31.0622 27.744 30.8342 27.228C30.6062 26.7 30.4922 26.136 30.4922 25.536ZM35.1542 23.124C34.8302 23.124 34.5242 23.19 34.2362 23.322C33.9602 23.442 33.7142 23.616 33.4982 23.844C33.2822 24.06 33.1082 24.318 32.9762 24.618C32.8562 24.906 32.7962 25.212 32.7962 25.536C32.7962 25.86 32.8562 26.166 32.9762 26.454C33.1082 26.73 33.2762 26.976 33.4802 27.192C33.6962 27.408 33.9482 27.576 34.2362 27.696C34.5242 27.816 34.8302 27.876 35.1542 27.876C35.4782 27.876 35.7842 27.816 36.0722 27.696C36.3602 27.576 36.6062 27.408 36.8102 27.192C37.0262 26.976 37.1942 26.73 37.3142 26.454C37.4462 26.166 37.5122 25.86 37.5122 25.536C37.5122 25.212 37.4462 24.906 37.3142 24.618C37.1942 24.318 37.0262 24.06 36.8102 23.844C36.5942 23.628 36.3422 23.454 36.0542 23.322C35.7782 23.19 35.4782 23.124 35.1542 23.124ZM51.6218 27.102C51.6218 27.726 51.5018 28.308 51.2618 28.848C51.0218 29.388 50.6918 29.862 50.2718 30.27C49.8518 30.666 49.3538 30.978 48.7778 31.206C48.2138 31.434 47.6018 31.548 46.9418 31.548C46.2218 31.548 45.5678 31.416 44.9798 31.152C44.4038 30.888 43.9118 30.504 43.5038 30C43.0958 29.496 42.7838 28.884 42.5678 28.164C42.3518 27.432 42.2438 26.604 42.2438 25.68C42.2438 24.516 42.3578 23.49 42.5858 22.602C42.8138 21.702 43.1438 20.952 43.5758 20.352C44.0078 19.74 44.5298 19.278 45.1418 18.966C45.7538 18.654 46.4378 18.498 47.1938 18.498C47.9978 18.498 48.7358 18.672 49.4078 19.02C50.0918 19.368 50.6678 19.866 51.1358 20.514L49.7498 22.026C49.4618 21.57 49.0898 21.216 48.6338 20.964C48.1778 20.712 47.6858 20.586 47.1578 20.586C46.3538 20.586 45.7118 20.904 45.2318 21.54C44.7518 22.176 44.4998 23.076 44.4758 24.24C44.7278 23.808 45.0818 23.466 45.5378 23.214C46.0058 22.962 46.5458 22.836 47.1578 22.836C47.7818 22.836 48.3638 22.944 48.9038 23.16C49.4558 23.376 49.9298 23.676 50.3258 24.06C50.7338 24.444 51.0518 24.9 51.2798 25.428C51.5078 25.944 51.6218 26.502 51.6218 27.102ZM46.9598 29.514C47.2718 29.514 47.5718 29.454 47.8598 29.334C48.1478 29.202 48.3998 29.028 48.6158 28.812C48.8318 28.584 48.9998 28.326 49.1198 28.038C49.2518 27.738 49.3178 27.426 49.3178 27.102C49.3178 26.778 49.2518 26.478 49.1198 26.202C48.9998 25.914 48.8318 25.662 48.6158 25.446C48.3998 25.23 48.1478 25.062 47.8598 24.942C47.5838 24.822 47.2838 24.762 46.9598 24.762C46.6358 24.762 46.3298 24.822 46.0418 24.942C45.7538 25.062 45.5018 25.23 45.2858 25.446C45.0698 25.662 44.9018 25.914 44.7818 26.202C44.6618 26.478 44.6018 26.778 44.6018 27.102C44.6018 27.426 44.6618 27.738 44.7818 28.038C44.9138 28.326 45.0878 28.578 45.3038 28.794C45.5198 29.01 45.7658 29.184 46.0418 29.316C46.3298 29.448 46.6358 29.514 46.9598 29.514ZM63.4194 26.094C63.4194 26.886 63.2994 27.618 63.0594 28.29C62.8314 28.95 62.5074 29.526 62.0874 30.018C61.6794 30.498 61.1874 30.876 60.6114 31.152C60.0474 31.416 59.4354 31.548 58.7754 31.548C58.1034 31.548 57.4854 31.416 56.9214 31.152C56.3574 30.876 55.8654 30.498 55.4454 30.018C55.0374 29.526 54.7134 28.95 54.4734 28.29C54.2454 27.618 54.1314 26.886 54.1314 26.094C54.1314 25.302 54.2454 24.576 54.4734 23.916C54.7134 23.244 55.0374 22.668 55.4454 22.188C55.8654 21.696 56.3574 21.312 56.9214 21.036C57.4854 20.76 58.1034 20.622 58.7754 20.622C59.4354 20.622 60.0474 20.76 60.6114 21.036C61.1874 21.312 61.6794 21.696 62.0874 22.188C62.5074 22.668 62.8314 23.244 63.0594 23.916C63.2994 24.576 63.4194 25.302 63.4194 26.094ZM60.9894 26.094C60.9894 25.614 60.9354 25.176 60.8274 24.78C60.7194 24.372 60.5634 24.024 60.3594 23.736C60.1674 23.448 59.9334 23.226 59.6574 23.07C59.3934 22.914 59.0994 22.836 58.7754 22.836C58.4394 22.836 58.1334 22.914 57.8574 23.07C57.5934 23.226 57.3594 23.448 57.1554 23.736C56.9634 24.024 56.8134 24.372 56.7054 24.78C56.5974 25.176 56.5434 25.614 56.5434 26.094C56.5434 26.574 56.5974 27.012 56.7054 27.408C56.8134 27.804 56.9634 28.146 57.1554 28.434C57.3594 28.722 57.5934 28.944 57.8574 29.1C58.1334 29.256 58.4394 29.334 58.7754 29.334C59.0994 29.334 59.3934 29.256 59.6574 29.1C59.9334 28.944 60.1674 28.722 60.3594 28.434C60.5634 28.146 60.7194 27.804 60.8274 27.408C60.9354 27.012 60.9894 26.574 60.9894 26.094ZM71.4743 27.516V25.338H76.9283V27.516H71.4743ZM92.5379 29.19V31.368H85.2299V29.19H87.7859V23.736C87.6779 23.88 87.5039 24.03 87.2639 24.186C87.0359 24.33 86.7839 24.468 86.5079 24.6C86.2319 24.732 85.9439 24.84 85.6439 24.924C85.3559 25.008 85.0979 25.05 84.8699 25.05V22.8C85.0859 22.8 85.3499 22.734 85.6619 22.602C85.9739 22.458 86.2799 22.29 86.5799 22.098C86.8799 21.906 87.1379 21.72 87.3539 21.54C87.5819 21.348 87.7259 21.198 87.7859 21.09H90.2519V29.19H92.5379ZM94.4485 25.536C94.4485 24.912 94.5685 24.33 94.8085 23.79C95.0485 23.25 95.3725 22.782 95.7805 22.386C96.2005 21.978 96.6925 21.66 97.2565 21.432C97.8325 21.204 98.4505 21.09 99.1105 21.09C99.8305 21.09 100.478 21.222 101.054 21.486C101.642 21.75 102.14 22.134 102.548 22.638C102.956 23.142 103.268 23.76 103.484 24.492C103.712 25.212 103.826 26.034 103.826 26.958C103.826 28.122 103.706 29.154 103.466 30.054C103.238 30.942 102.908 31.686 102.476 32.286C102.056 32.898 101.54 33.36 100.928 33.672C100.316 33.984 99.6325 34.14 98.8765 34.14C98.0725 34.14 97.3285 33.966 96.6445 33.618C95.9605 33.27 95.3845 32.772 94.9165 32.124L96.3025 30.612C96.5905 31.068 96.9625 31.422 97.4185 31.674C97.8745 31.926 98.3725 32.052 98.9125 32.052C99.7165 32.052 100.352 31.734 100.82 31.098C101.3 30.462 101.552 29.562 101.576 28.398C101.336 28.83 100.982 29.172 100.514 29.424C100.046 29.676 99.5065 29.802 98.8945 29.802C98.2585 29.802 97.6705 29.694 97.1305 29.478C96.5905 29.262 96.1225 28.962 95.7265 28.578C95.3305 28.194 95.0185 27.744 94.7905 27.228C94.5625 26.7 94.4485 26.136 94.4485 25.536ZM99.1105 23.124C98.7865 23.124 98.4805 23.19 98.1925 23.322C97.9165 23.442 97.6705 23.616 97.4545 23.844C97.2385 24.06 97.0645 24.318 96.9325 24.618C96.8125 24.906 96.7525 25.212 96.7525 25.536C96.7525 25.86 96.8125 26.166 96.9325 26.454C97.0645 26.73 97.2325 26.976 97.4365 27.192C97.6525 27.408 97.9045 27.576 98.1925 27.696C98.4805 27.816 98.7865 27.876 99.1105 27.876C99.4345 27.876 99.7405 27.816 100.028 27.696C100.316 27.576 100.562 27.408 100.766 27.192C100.982 26.976 101.15 26.73 101.27 26.454C101.402 26.166 101.468 25.86 101.468 25.536C101.468 25.212 101.402 24.906 101.27 24.618C101.15 24.318 100.982 24.06 100.766 23.844C100.55 23.628 100.298 23.454 100.01 23.322C99.7345 23.19 99.4345 23.124 99.1105 23.124ZM115.578 27.102C115.578 27.726 115.458 28.308 115.218 28.848C114.978 29.388 114.648 29.862 114.228 30.27C113.808 30.666 113.31 30.978 112.734 31.206C112.17 31.434 111.558 31.548 110.898 31.548C110.178 31.548 109.524 31.416 108.936 31.152C108.36 30.888 107.868 30.504 107.46 30C107.052 29.496 106.74 28.884 106.524 28.164C106.308 27.432 106.2 26.604 106.2 25.68C106.2 24.516 106.314 23.49 106.542 22.602C106.77 21.702 107.1 20.952 107.532 20.352C107.964 19.74 108.486 19.278 109.098 18.966C109.71 18.654 110.394 18.498 111.15 18.498C111.954 18.498 112.692 18.672 113.364 19.02C114.048 19.368 114.624 19.866 115.092 20.514L113.706 22.026C113.418 21.57 113.046 21.216 112.59 20.964C112.134 20.712 111.642 20.586 111.114 20.586C110.31 20.586 109.668 20.904 109.188 21.54C108.708 22.176 108.456 23.076 108.432 24.24C108.684 23.808 109.038 23.466 109.494 23.214C109.962 22.962 110.502 22.836 111.114 22.836C111.738 22.836 112.32 22.944 112.86 23.16C113.412 23.376 113.886 23.676 114.282 24.06C114.69 24.444 115.008 24.9 115.236 25.428C115.464 25.944 115.578 26.502 115.578 27.102ZM110.916 29.514C111.228 29.514 111.528 29.454 111.816 29.334C112.104 29.202 112.356 29.028 112.572 28.812C112.788 28.584 112.956 28.326 113.076 28.038C113.208 27.738 113.274 27.426 113.274 27.102C113.274 26.778 113.208 26.478 113.076 26.202C112.956 25.914 112.788 25.662 112.572 25.446C112.356 25.23 112.104 25.062 111.816 24.942C111.54 24.822 111.24 24.762 110.916 24.762C110.592 24.762 110.286 24.822 109.998 24.942C109.71 25.062 109.458 25.23 109.242 25.446C109.026 25.662 108.858 25.914 108.738 26.202C108.618 26.478 108.558 26.778 108.558 27.102C108.558 27.426 108.618 27.738 108.738 28.038C108.87 28.326 109.044 28.578 109.26 28.794C109.476 29.01 109.722 29.184 109.998 29.316C110.286 29.448 110.592 29.514 110.916 29.514ZM122.426 25.626C123.026 25.626 123.584 25.728 124.1 25.932C124.616 26.124 125.06 26.4 125.432 26.76C125.804 27.12 126.092 27.552 126.296 28.056C126.512 28.56 126.62 29.118 126.62 29.73C126.62 30.378 126.5 30.966 126.26 31.494C126.032 32.022 125.708 32.472 125.288 32.844C124.868 33.228 124.37 33.522 123.794 33.726C123.218 33.942 122.594 34.05 121.922 34.05C120.986 34.05 120.146 33.852 119.402 33.456C118.67 33.06 118.112 32.52 117.728 31.836L119.114 30.396C119.45 30.864 119.87 31.236 120.374 31.512C120.878 31.788 121.4 31.926 121.94 31.926C122.588 31.926 123.116 31.734 123.524 31.35C123.944 30.954 124.154 30.432 124.154 29.784C124.154 29.16 123.956 28.656 123.56 28.272C123.176 27.888 122.684 27.696 122.084 27.696C121.688 27.696 121.316 27.786 120.968 27.966C120.632 28.146 120.362 28.392 120.158 28.704H118.052C118.052 28.668 118.076 28.536 118.124 28.308C118.172 28.068 118.232 27.768 118.304 27.408C118.376 27.036 118.454 26.628 118.538 26.184C118.622 25.728 118.712 25.266 118.808 24.798C119.024 23.694 119.264 22.458 119.528 21.09H125.828V23.286H121.274L120.752 26.148C120.896 25.992 121.106 25.866 121.382 25.77C121.67 25.674 122.018 25.626 122.426 25.626ZM178.326 29.19V31.368H171.018V29.19H173.574V23.736C173.466 23.88 173.292 24.03 173.052 24.186C172.824 24.33 172.572 24.468 172.296 24.6C172.02 24.732 171.732 24.84 171.432 24.924C171.144 25.008 170.886 25.05 170.658 25.05V22.8C170.874 22.8 171.138 22.734 171.45 22.602C171.762 22.458 172.068 22.29 172.368 22.098C172.668 21.906 172.926 21.72 173.142 21.54C173.37 21.348 173.514 21.198 173.574 21.09H176.04V29.19H178.326ZM180.237 25.536C180.237 24.912 180.357 24.33 180.597 23.79C180.837 23.25 181.161 22.782 181.569 22.386C181.989 21.978 182.481 21.66 183.045 21.432C183.621 21.204 184.239 21.09 184.899 21.09C185.619 21.09 186.267 21.222 186.843 21.486C187.431 21.75 187.929 22.134 188.337 22.638C188.745 23.142 189.057 23.76 189.273 24.492C189.501 25.212 189.615 26.034 189.615 26.958C189.615 28.122 189.495 29.154 189.255 30.054C189.027 30.942 188.697 31.686 188.265 32.286C187.845 32.898 187.329 33.36 186.717 33.672C186.105 33.984 185.421 34.14 184.665 34.14C183.861 34.14 183.117 33.966 182.433 33.618C181.749 33.27 181.173 32.772 180.705 32.124L182.091 30.612C182.379 31.068 182.751 31.422 183.207 31.674C183.663 31.926 184.161 32.052 184.701 32.052C185.505 32.052 186.141 31.734 186.609 31.098C187.089 30.462 187.341 29.562 187.365 28.398C187.125 28.83 186.771 29.172 186.303 29.424C185.835 29.676 185.295 29.802 184.683 29.802C184.047 29.802 183.459 29.694 182.919 29.478C182.379 29.262 181.911 28.962 181.515 28.578C181.119 28.194 180.807 27.744 180.579 27.228C180.351 26.7 180.237 26.136 180.237 25.536ZM184.899 23.124C184.575 23.124 184.269 23.19 183.981 23.322C183.705 23.442 183.459 23.616 183.243 23.844C183.027 24.06 182.853 24.318 182.721 24.618C182.601 24.906 182.541 25.212 182.541 25.536C182.541 25.86 182.601 26.166 182.721 26.454C182.853 26.73 183.021 26.976 183.225 27.192C183.441 27.408 183.693 27.576 183.981 27.696C184.269 27.816 184.575 27.876 184.899 27.876C185.223 27.876 185.529 27.816 185.817 27.696C186.105 27.576 186.351 27.408 186.555 27.192C186.771 26.976 186.939 26.73 187.059 26.454C187.191 26.166 187.257 25.86 187.257 25.536C187.257 25.212 187.191 24.906 187.059 24.618C186.939 24.318 186.771 24.06 186.555 23.844C186.339 23.628 186.087 23.454 185.799 23.322C185.523 23.19 185.223 23.124 184.899 23.124ZM201.366 27.102C201.366 27.726 201.246 28.308 201.006 28.848C200.766 29.388 200.436 29.862 200.016 30.27C199.596 30.666 199.098 30.978 198.522 31.206C197.958 31.434 197.346 31.548 196.686 31.548C195.966 31.548 195.312 31.416 194.724 31.152C194.148 30.888 193.656 30.504 193.248 30C192.84 29.496 192.528 28.884 192.312 28.164C192.096 27.432 191.988 26.604 191.988 25.68C191.988 24.516 192.102 23.49 192.33 22.602C192.558 21.702 192.888 20.952 193.32 20.352C193.752 19.74 194.274 19.278 194.886 18.966C195.498 18.654 196.182 18.498 196.938 18.498C197.742 18.498 198.48 18.672 199.152 19.02C199.836 19.368 200.412 19.866 200.88 20.514L199.494 22.026C199.206 21.57 198.834 21.216 198.378 20.964C197.922 20.712 197.43 20.586 196.902 20.586C196.098 20.586 195.456 20.904 194.976 21.54C194.496 22.176 194.244 23.076 194.22 24.24C194.472 23.808 194.826 23.466 195.282 23.214C195.75 22.962 196.29 22.836 196.902 22.836C197.526 22.836 198.108 22.944 198.648 23.16C199.2 23.376 199.674 23.676 200.07 24.06C200.478 24.444 200.796 24.9 201.024 25.428C201.252 25.944 201.366 26.502 201.366 27.102ZM196.704 29.514C197.016 29.514 197.316 29.454 197.604 29.334C197.892 29.202 198.144 29.028 198.36 28.812C198.576 28.584 198.744 28.326 198.864 28.038C198.996 27.738 199.062 27.426 199.062 27.102C199.062 26.778 198.996 26.478 198.864 26.202C198.744 25.914 198.576 25.662 198.36 25.446C198.144 25.23 197.892 25.062 197.604 24.942C197.328 24.822 197.028 24.762 196.704 24.762C196.38 24.762 196.074 24.822 195.786 24.942C195.498 25.062 195.246 25.23 195.03 25.446C194.814 25.662 194.646 25.914 194.526 26.202C194.406 26.478 194.346 26.778 194.346 27.102C194.346 27.426 194.406 27.738 194.526 28.038C194.658 28.326 194.832 28.578 195.048 28.794C195.264 29.01 195.51 29.184 195.786 29.316C196.074 29.448 196.38 29.514 196.704 29.514ZM213.2 27.102C213.2 27.726 213.08 28.308 212.84 28.848C212.6 29.388 212.27 29.862 211.85 30.27C211.43 30.666 210.932 30.978 210.356 31.206C209.792 31.434 209.18 31.548 208.52 31.548C207.8 31.548 207.146 31.416 206.558 31.152C205.982 30.888 205.49 30.504 205.082 30C204.674 29.496 204.362 28.884 204.146 28.164C203.93 27.432 203.822 26.604 203.822 25.68C203.822 24.516 203.936 23.49 204.164 22.602C204.392 21.702 204.722 20.952 205.154 20.352C205.586 19.74 206.108 19.278 206.72 18.966C207.332 18.654 208.016 18.498 208.772 18.498C209.576 18.498 210.314 18.672 210.986 19.02C211.67 19.368 212.246 19.866 212.714 20.514L211.328 22.026C211.04 21.57 210.668 21.216 210.212 20.964C209.756 20.712 209.264 20.586 208.736 20.586C207.932 20.586 207.29 20.904 206.81 21.54C206.33 22.176 206.078 23.076 206.054 24.24C206.306 23.808 206.66 23.466 207.116 23.214C207.584 22.962 208.124 22.836 208.736 22.836C209.36 22.836 209.942 22.944 210.482 23.16C211.034 23.376 211.508 23.676 211.904 24.06C212.312 24.444 212.63 24.9 212.858 25.428C213.086 25.944 213.2 26.502 213.2 27.102ZM208.538 29.514C208.85 29.514 209.15 29.454 209.438 29.334C209.726 29.202 209.978 29.028 210.194 28.812C210.41 28.584 210.578 28.326 210.698 28.038C210.83 27.738 210.896 27.426 210.896 27.102C210.896 26.778 210.83 26.478 210.698 26.202C210.578 25.914 210.41 25.662 210.194 25.446C209.978 25.23 209.726 25.062 209.438 24.942C209.162 24.822 208.862 24.762 208.538 24.762C208.214 24.762 207.908 24.822 207.62 24.942C207.332 25.062 207.08 25.23 206.864 25.446C206.648 25.662 206.48 25.914 206.36 26.202C206.24 26.478 206.18 26.778 206.18 27.102C206.18 27.426 206.24 27.738 206.36 28.038C206.492 28.326 206.666 28.578 206.882 28.794C207.098 29.01 207.344 29.184 207.62 29.316C207.908 29.448 208.214 29.514 208.538 29.514ZM221.096 27.516V25.338H226.55V27.516H221.096ZM242.159 29.19V31.368H234.851V29.19H237.407V23.736C237.299 23.88 237.125 24.03 236.885 24.186C236.657 24.33 236.405 24.468 236.129 24.6C235.853 24.732 235.565 24.84 235.265 24.924C234.977 25.008 234.719 25.05 234.491 25.05V22.8C234.707 22.8 234.971 22.734 235.283 22.602C235.595 22.458 235.901 22.29 236.201 22.098C236.501 21.906 236.759 21.72 236.975 21.54C237.203 21.348 237.347 21.198 237.407 21.09H239.873V29.19H242.159ZM244.07 25.536C244.07 24.912 244.19 24.33 244.43 23.79C244.67 23.25 244.994 22.782 245.402 22.386C245.822 21.978 246.314 21.66 246.878 21.432C247.454 21.204 248.072 21.09 248.732 21.09C249.452 21.09 250.1 21.222 250.676 21.486C251.264 21.75 251.762 22.134 252.17 22.638C252.578 23.142 252.89 23.76 253.106 24.492C253.334 25.212 253.448 26.034 253.448 26.958C253.448 28.122 253.328 29.154 253.088 30.054C252.86 30.942 252.53 31.686 252.098 32.286C251.678 32.898 251.162 33.36 250.55 33.672C249.938 33.984 249.254 34.14 248.498 34.14C247.694 34.14 246.95 33.966 246.266 33.618C245.582 33.27 245.006 32.772 244.538 32.124L245.924 30.612C246.212 31.068 246.584 31.422 247.04 31.674C247.496 31.926 247.994 32.052 248.534 32.052C249.338 32.052 249.974 31.734 250.442 31.098C250.922 30.462 251.174 29.562 251.198 28.398C250.958 28.83 250.604 29.172 250.136 29.424C249.668 29.676 249.128 29.802 248.516 29.802C247.88 29.802 247.292 29.694 246.752 29.478C246.212 29.262 245.744 28.962 245.348 28.578C244.952 28.194 244.64 27.744 244.412 27.228C244.184 26.7 244.07 26.136 244.07 25.536ZM248.732 23.124C248.408 23.124 248.102 23.19 247.814 23.322C247.538 23.442 247.292 23.616 247.076 23.844C246.86 24.06 246.686 24.318 246.554 24.618C246.434 24.906 246.374 25.212 246.374 25.536C246.374 25.86 246.434 26.166 246.554 26.454C246.686 26.73 246.854 26.976 247.058 27.192C247.274 27.408 247.526 27.576 247.814 27.696C248.102 27.816 248.408 27.876 248.732 27.876C249.056 27.876 249.362 27.816 249.65 27.696C249.938 27.576 250.184 27.408 250.388 27.192C250.604 26.976 250.772 26.73 250.892 26.454C251.024 26.166 251.09 25.86 251.09 25.536C251.09 25.212 251.024 24.906 250.892 24.618C250.772 24.318 250.604 24.06 250.388 23.844C250.172 23.628 249.92 23.454 249.632 23.322C249.356 23.19 249.056 23.124 248.732 23.124ZM260.89 23.07H255.076V20.874H264.688L258.352 33.654H255.616L260.89 23.07ZM275.485 26.094C275.485 26.886 275.365 27.618 275.125 28.29C274.897 28.95 274.573 29.526 274.153 30.018C273.745 30.498 273.253 30.876 272.677 31.152C272.113 31.416 271.501 31.548 270.841 31.548C270.169 31.548 269.551 31.416 268.987 31.152C268.423 30.876 267.931 30.498 267.511 30.018C267.103 29.526 266.779 28.95 266.539 28.29C266.311 27.618 266.197 26.886 266.197 26.094C266.197 25.302 266.311 24.576 266.539 23.916C266.779 23.244 267.103 22.668 267.511 22.188C267.931 21.696 268.423 21.312 268.987 21.036C269.551 20.76 270.169 20.622 270.841 20.622C271.501 20.622 272.113 20.76 272.677 21.036C273.253 21.312 273.745 21.696 274.153 22.188C274.573 22.668 274.897 23.244 275.125 23.916C275.365 24.576 275.485 25.302 275.485 26.094ZM273.055 26.094C273.055 25.614 273.001 25.176 272.893 24.78C272.785 24.372 272.629 24.024 272.425 23.736C272.233 23.448 271.999 23.226 271.723 23.07C271.459 22.914 271.165 22.836 270.841 22.836C270.505 22.836 270.199 22.914 269.923 23.07C269.659 23.226 269.425 23.448 269.221 23.736C269.029 24.024 268.879 24.372 268.771 24.78C268.663 25.176 268.609 25.614 268.609 26.094C268.609 26.574 268.663 27.012 268.771 27.408C268.879 27.804 269.029 28.146 269.221 28.434C269.425 28.722 269.659 28.944 269.923 29.1C270.199 29.256 270.505 29.334 270.841 29.334C271.165 29.334 271.459 29.256 271.723 29.1C271.999 28.944 272.233 28.722 272.425 28.434C272.629 28.146 272.785 27.804 272.893 27.408C273.001 27.012 273.055 26.574 273.055 26.094ZM322.302 29.19V31.368H314.994V29.19H317.55V23.736C317.442 23.88 317.268 24.03 317.028 24.186C316.8 24.33 316.548 24.468 316.272 24.6C315.996 24.732 315.708 24.84 315.408 24.924C315.12 25.008 314.862 25.05 314.634 25.05V22.8C314.85 22.8 315.114 22.734 315.426 22.602C315.738 22.458 316.044 22.29 316.344 22.098C316.644 21.906 316.902 21.72 317.118 21.54C317.346 21.348 317.49 21.198 317.55 21.09H320.016V29.19H322.302ZM324.212 25.536C324.212 24.912 324.332 24.33 324.572 23.79C324.812 23.25 325.136 22.782 325.544 22.386C325.964 21.978 326.456 21.66 327.02 21.432C327.596 21.204 328.214 21.09 328.874 21.09C329.594 21.09 330.242 21.222 330.818 21.486C331.406 21.75 331.904 22.134 332.312 22.638C332.72 23.142 333.032 23.76 333.248 24.492C333.476 25.212 333.59 26.034 333.59 26.958C333.59 28.122 333.47 29.154 333.23 30.054C333.002 30.942 332.672 31.686 332.24 32.286C331.82 32.898 331.304 33.36 330.692 33.672C330.08 33.984 329.396 34.14 328.64 34.14C327.836 34.14 327.092 33.966 326.408 33.618C325.724 33.27 325.148 32.772 324.68 32.124L326.066 30.612C326.354 31.068 326.726 31.422 327.182 31.674C327.638 31.926 328.136 32.052 328.676 32.052C329.48 32.052 330.116 31.734 330.584 31.098C331.064 30.462 331.316 29.562 331.34 28.398C331.1 28.83 330.746 29.172 330.278 29.424C329.81 29.676 329.27 29.802 328.658 29.802C328.022 29.802 327.434 29.694 326.894 29.478C326.354 29.262 325.886 28.962 325.49 28.578C325.094 28.194 324.782 27.744 324.554 27.228C324.326 26.7 324.212 26.136 324.212 25.536ZM328.874 23.124C328.55 23.124 328.244 23.19 327.956 23.322C327.68 23.442 327.434 23.616 327.218 23.844C327.002 24.06 326.828 24.318 326.696 24.618C326.576 24.906 326.516 25.212 326.516 25.536C326.516 25.86 326.576 26.166 326.696 26.454C326.828 26.73 326.996 26.976 327.2 27.192C327.416 27.408 327.668 27.576 327.956 27.696C328.244 27.816 328.55 27.876 328.874 27.876C329.198 27.876 329.504 27.816 329.792 27.696C330.08 27.576 330.326 27.408 330.53 27.192C330.746 26.976 330.914 26.73 331.034 26.454C331.166 26.166 331.232 25.86 331.232 25.536C331.232 25.212 331.166 24.906 331.034 24.618C330.914 24.318 330.746 24.06 330.53 23.844C330.314 23.628 330.062 23.454 329.774 23.322C329.498 23.19 329.198 23.124 328.874 23.124ZM341.032 23.07H335.218V20.874H344.83L338.494 33.654H335.758L341.032 23.07ZM354.164 29.19V31.368H346.856V29.19H349.412V23.736C349.304 23.88 349.13 24.03 348.89 24.186C348.662 24.33 348.41 24.468 348.134 24.6C347.858 24.732 347.57 24.84 347.27 24.924C346.982 25.008 346.724 25.05 346.496 25.05V22.8C346.712 22.8 346.976 22.734 347.288 22.602C347.6 22.458 347.906 22.29 348.206 22.098C348.506 21.906 348.764 21.72 348.98 21.54C349.208 21.348 349.352 21.198 349.412 21.09H351.878V29.19H354.164ZM356.314 27.516V25.338H361.768V27.516H356.314ZM377.377 29.19V31.368H370.069V29.19H372.625V23.736C372.517 23.88 372.343 24.03 372.103 24.186C371.875 24.33 371.623 24.468 371.347 24.6C371.071 24.732 370.783 24.84 370.483 24.924C370.195 25.008 369.937 25.05 369.709 25.05V22.8C369.925 22.8 370.189 22.734 370.501 22.602C370.813 22.458 371.119 22.29 371.419 22.098C371.719 21.906 371.977 21.72 372.193 21.54C372.421 21.348 372.565 21.198 372.625 21.09H375.091V29.19H377.377ZM379.288 25.536C379.288 24.912 379.408 24.33 379.648 23.79C379.888 23.25 380.212 22.782 380.62 22.386C381.04 21.978 381.532 21.66 382.096 21.432C382.672 21.204 383.29 21.09 383.95 21.09C384.67 21.09 385.318 21.222 385.894 21.486C386.482 21.75 386.98 22.134 387.388 22.638C387.796 23.142 388.108 23.76 388.324 24.492C388.552 25.212 388.666 26.034 388.666 26.958C388.666 28.122 388.546 29.154 388.306 30.054C388.078 30.942 387.748 31.686 387.316 32.286C386.896 32.898 386.38 33.36 385.768 33.672C385.156 33.984 384.472 34.14 383.716 34.14C382.912 34.14 382.168 33.966 381.484 33.618C380.8 33.27 380.224 32.772 379.756 32.124L381.142 30.612C381.43 31.068 381.802 31.422 382.258 31.674C382.714 31.926 383.212 32.052 383.752 32.052C384.556 32.052 385.192 31.734 385.66 31.098C386.14 30.462 386.392 29.562 386.416 28.398C386.176 28.83 385.822 29.172 385.354 29.424C384.886 29.676 384.346 29.802 383.734 29.802C383.098 29.802 382.51 29.694 381.97 29.478C381.43 29.262 380.962 28.962 380.566 28.578C380.17 28.194 379.858 27.744 379.63 27.228C379.402 26.7 379.288 26.136 379.288 25.536ZM383.95 23.124C383.626 23.124 383.32 23.19 383.032 23.322C382.756 23.442 382.51 23.616 382.294 23.844C382.078 24.06 381.904 24.318 381.772 24.618C381.652 24.906 381.592 25.212 381.592 25.536C381.592 25.86 381.652 26.166 381.772 26.454C381.904 26.73 382.072 26.976 382.276 27.192C382.492 27.408 382.744 27.576 383.032 27.696C383.32 27.816 383.626 27.876 383.95 27.876C384.274 27.876 384.58 27.816 384.868 27.696C385.156 27.576 385.402 27.408 385.606 27.192C385.822 26.976 385.99 26.73 386.11 26.454C386.242 26.166 386.308 25.86 386.308 25.536C386.308 25.212 386.242 24.906 386.11 24.618C385.99 24.318 385.822 24.06 385.606 23.844C385.39 23.628 385.138 23.454 384.85 23.322C384.574 23.19 384.274 23.124 383.95 23.124ZM396.108 23.07H390.294V20.874H399.906L393.57 33.654H390.834L396.108 23.07ZM405.665 25.626C406.265 25.626 406.823 25.728 407.339 25.932C407.855 26.124 408.299 26.4 408.671 26.76C409.043 27.12 409.331 27.552 409.535 28.056C409.751 28.56 409.859 29.118 409.859 29.73C409.859 30.378 409.739 30.966 409.499 31.494C409.271 32.022 408.947 32.472 408.527 32.844C408.107 33.228 407.609 33.522 407.033 33.726C406.457 33.942 405.833 34.05 405.161 34.05C404.225 34.05 403.385 33.852 402.641 33.456C401.909 33.06 401.351 32.52 400.967 31.836L402.353 30.396C402.689 30.864 403.109 31.236 403.613 31.512C404.117 31.788 404.639 31.926 405.179 31.926C405.827 31.926 406.355 31.734 406.763 31.35C407.183 30.954 407.393 30.432 407.393 29.784C407.393 29.16 407.195 28.656 406.799 28.272C406.415 27.888 405.923 27.696 405.323 27.696C404.927 27.696 404.555 27.786 404.207 27.966C403.871 28.146 403.601 28.392 403.397 28.704H401.291C401.291 28.668 401.315 28.536 401.363 28.308C401.411 28.068 401.471 27.768 401.543 27.408C401.615 27.036 401.693 26.628 401.777 26.184C401.861 25.728 401.951 25.266 402.047 24.798C402.263 23.694 402.503 22.458 402.767 21.09H409.067V23.286H404.513L403.991 26.148C404.135 25.992 404.345 25.866 404.621 25.77C404.909 25.674 405.257 25.626 405.665 25.626ZM461.566 29.19V31.368H454.258V29.19H456.814V23.736C456.706 23.88 456.532 24.03 456.292 24.186C456.064 24.33 455.812 24.468 455.536 24.6C455.26 24.732 454.972 24.84 454.672 24.924C454.384 25.008 454.126 25.05 453.898 25.05V22.8C454.114 22.8 454.378 22.734 454.69 22.602C455.002 22.458 455.308 22.29 455.608 22.098C455.908 21.906 456.166 21.72 456.382 21.54C456.61 21.348 456.754 21.198 456.814 21.09H459.28V29.19H461.566ZM463.477 25.536C463.477 24.912 463.597 24.33 463.837 23.79C464.077 23.25 464.401 22.782 464.809 22.386C465.229 21.978 465.721 21.66 466.285 21.432C466.861 21.204 467.479 21.09 468.139 21.09C468.859 21.09 469.507 21.222 470.083 21.486C470.671 21.75 471.169 22.134 471.577 22.638C471.985 23.142 472.297 23.76 472.513 24.492C472.741 25.212 472.855 26.034 472.855 26.958C472.855 28.122 472.735 29.154 472.495 30.054C472.267 30.942 471.937 31.686 471.505 32.286C471.085 32.898 470.569 33.36 469.957 33.672C469.345 33.984 468.661 34.14 467.905 34.14C467.101 34.14 466.357 33.966 465.673 33.618C464.989 33.27 464.413 32.772 463.945 32.124L465.331 30.612C465.619 31.068 465.991 31.422 466.447 31.674C466.903 31.926 467.401 32.052 467.941 32.052C468.745 32.052 469.381 31.734 469.849 31.098C470.329 30.462 470.581 29.562 470.605 28.398C470.365 28.83 470.011 29.172 469.543 29.424C469.075 29.676 468.535 29.802 467.923 29.802C467.287 29.802 466.699 29.694 466.159 29.478C465.619 29.262 465.151 28.962 464.755 28.578C464.359 28.194 464.047 27.744 463.819 27.228C463.591 26.7 463.477 26.136 463.477 25.536ZM468.139 23.124C467.815 23.124 467.509 23.19 467.221 23.322C466.945 23.442 466.699 23.616 466.483 23.844C466.267 24.06 466.093 24.318 465.961 24.618C465.841 24.906 465.781 25.212 465.781 25.536C465.781 25.86 465.841 26.166 465.961 26.454C466.093 26.73 466.261 26.976 466.465 27.192C466.681 27.408 466.933 27.576 467.221 27.696C467.509 27.816 467.815 27.876 468.139 27.876C468.463 27.876 468.769 27.816 469.057 27.696C469.345 27.576 469.591 27.408 469.795 27.192C470.011 26.976 470.179 26.73 470.299 26.454C470.431 26.166 470.497 25.86 470.497 25.536C470.497 25.212 470.431 24.906 470.299 24.618C470.179 24.318 470.011 24.06 469.795 23.844C469.579 23.628 469.327 23.454 469.039 23.322C468.763 23.19 468.463 23.124 468.139 23.124ZM480.296 23.07H474.482V20.874H484.094L477.758 33.654H475.022L480.296 23.07ZM495.174 27.102C495.174 27.726 495.054 28.308 494.814 28.848C494.574 29.388 494.244 29.862 493.824 30.27C493.404 30.666 492.906 30.978 492.33 31.206C491.766 31.434 491.154 31.548 490.494 31.548C489.774 31.548 489.12 31.416 488.532 31.152C487.956 30.888 487.464 30.504 487.056 30C486.648 29.496 486.336 28.884 486.12 28.164C485.904 27.432 485.796 26.604 485.796 25.68C485.796 24.516 485.91 23.49 486.138 22.602C486.366 21.702 486.696 20.952 487.128 20.352C487.56 19.74 488.082 19.278 488.694 18.966C489.306 18.654 489.99 18.498 490.746 18.498C491.55 18.498 492.288 18.672 492.96 19.02C493.644 19.368 494.22 19.866 494.688 20.514L493.302 22.026C493.014 21.57 492.642 21.216 492.186 20.964C491.73 20.712 491.238 20.586 490.71 20.586C489.906 20.586 489.264 20.904 488.784 21.54C488.304 22.176 488.052 23.076 488.028 24.24C488.28 23.808 488.634 23.466 489.09 23.214C489.558 22.962 490.098 22.836 490.71 22.836C491.334 22.836 491.916 22.944 492.456 23.16C493.008 23.376 493.482 23.676 493.878 24.06C494.286 24.444 494.604 24.9 494.832 25.428C495.06 25.944 495.174 26.502 495.174 27.102ZM490.512 29.514C490.824 29.514 491.124 29.454 491.412 29.334C491.7 29.202 491.952 29.028 492.168 28.812C492.384 28.584 492.552 28.326 492.672 28.038C492.804 27.738 492.87 27.426 492.87 27.102C492.87 26.778 492.804 26.478 492.672 26.202C492.552 25.914 492.384 25.662 492.168 25.446C491.952 25.23 491.7 25.062 491.412 24.942C491.136 24.822 490.836 24.762 490.512 24.762C490.188 24.762 489.882 24.822 489.594 24.942C489.306 25.062 489.054 25.23 488.838 25.446C488.622 25.662 488.454 25.914 488.334 26.202C488.214 26.478 488.154 26.778 488.154 27.102C488.154 27.426 488.214 27.738 488.334 28.038C488.466 28.326 488.64 28.578 488.856 28.794C489.072 29.01 489.318 29.184 489.594 29.316C489.882 29.448 490.188 29.514 490.512 29.514ZM503.07 27.516V25.338H508.524V27.516H503.07ZM524.134 29.19V31.368H516.826V29.19H519.382V23.736C519.274 23.88 519.1 24.03 518.86 24.186C518.632 24.33 518.38 24.468 518.104 24.6C517.828 24.732 517.54 24.84 517.24 24.924C516.952 25.008 516.694 25.05 516.466 25.05V22.8C516.682 22.8 516.946 22.734 517.258 22.602C517.57 22.458 517.876 22.29 518.176 22.098C518.476 21.906 518.734 21.72 518.95 21.54C519.178 21.348 519.322 21.198 519.382 21.09H521.848V29.19H524.134ZM526.044 25.536C526.044 24.912 526.164 24.33 526.404 23.79C526.644 23.25 526.968 22.782 527.376 22.386C527.796 21.978 528.288 21.66 528.852 21.432C529.428 21.204 530.046 21.09 530.706 21.09C531.426 21.09 532.074 21.222 532.65 21.486C533.238 21.75 533.736 22.134 534.144 22.638C534.552 23.142 534.864 23.76 535.08 24.492C535.308 25.212 535.422 26.034 535.422 26.958C535.422 28.122 535.302 29.154 535.062 30.054C534.834 30.942 534.504 31.686 534.072 32.286C533.652 32.898 533.136 33.36 532.524 33.672C531.912 33.984 531.228 34.14 530.472 34.14C529.668 34.14 528.924 33.966 528.24 33.618C527.556 33.27 526.98 32.772 526.512 32.124L527.898 30.612C528.186 31.068 528.558 31.422 529.014 31.674C529.47 31.926 529.968 32.052 530.508 32.052C531.312 32.052 531.948 31.734 532.416 31.098C532.896 30.462 533.148 29.562 533.172 28.398C532.932 28.83 532.578 29.172 532.11 29.424C531.642 29.676 531.102 29.802 530.49 29.802C529.854 29.802 529.266 29.694 528.726 29.478C528.186 29.262 527.718 28.962 527.322 28.578C526.926 28.194 526.614 27.744 526.386 27.228C526.158 26.7 526.044 26.136 526.044 25.536ZM530.706 23.124C530.382 23.124 530.076 23.19 529.788 23.322C529.512 23.442 529.266 23.616 529.05 23.844C528.834 24.06 528.66 24.318 528.528 24.618C528.408 24.906 528.348 25.212 528.348 25.536C528.348 25.86 528.408 26.166 528.528 26.454C528.66 26.73 528.828 26.976 529.032 27.192C529.248 27.408 529.5 27.576 529.788 27.696C530.076 27.816 530.382 27.876 530.706 27.876C531.03 27.876 531.336 27.816 531.624 27.696C531.912 27.576 532.158 27.408 532.362 27.192C532.578 26.976 532.746 26.73 532.866 26.454C532.998 26.166 533.064 25.86 533.064 25.536C533.064 25.212 532.998 24.906 532.866 24.618C532.746 24.318 532.578 24.06 532.362 23.844C532.146 23.628 531.894 23.454 531.606 23.322C531.33 23.19 531.03 23.124 530.706 23.124ZM547.048 27.588C547.048 28.188 546.922 28.728 546.67 29.208C546.43 29.688 546.094 30.102 545.662 30.45C545.242 30.798 544.75 31.068 544.186 31.26C543.622 31.44 543.022 31.53 542.386 31.53C541.75 31.53 541.15 31.434 540.586 31.242C540.022 31.038 539.53 30.756 539.11 30.396C538.69 30.036 538.36 29.61 538.12 29.118C537.88 28.626 537.76 28.086 537.76 27.498C537.76 27.138 537.82 26.808 537.94 26.508C538.06 26.196 538.216 25.914 538.408 25.662C538.6 25.41 538.81 25.188 539.038 24.996C539.278 24.804 539.518 24.648 539.758 24.528C539.314 24.312 538.936 23.988 538.624 23.556C538.312 23.124 538.156 22.65 538.156 22.134C538.156 21.558 538.282 21.054 538.534 20.622C538.798 20.178 539.134 19.806 539.542 19.506C539.962 19.206 540.418 18.978 540.91 18.822C541.414 18.666 541.912 18.588 542.404 18.588C542.884 18.588 543.376 18.666 543.88 18.822C544.396 18.966 544.858 19.188 545.266 19.488C545.674 19.788 546.01 20.16 546.274 20.604C546.538 21.036 546.67 21.54 546.67 22.116C546.67 22.368 546.628 22.62 546.544 22.872C546.46 23.112 546.34 23.34 546.184 23.556C546.04 23.76 545.866 23.946 545.662 24.114C545.458 24.282 545.242 24.42 545.014 24.528C545.278 24.66 545.53 24.828 545.77 25.032C546.01 25.224 546.226 25.452 546.418 25.716C546.61 25.968 546.76 26.25 546.868 26.562C546.988 26.874 547.048 27.216 547.048 27.588ZM544.6 27.444C544.6 27.144 544.534 26.874 544.402 26.634C544.282 26.394 544.114 26.196 543.898 26.04C543.694 25.872 543.46 25.746 543.196 25.662C542.932 25.578 542.662 25.536 542.386 25.536C542.098 25.536 541.822 25.584 541.558 25.68C541.294 25.764 541.06 25.89 540.856 26.058C540.664 26.226 540.508 26.43 540.388 26.67C540.268 26.898 540.208 27.156 540.208 27.444C540.208 27.732 540.268 27.996 540.388 28.236C540.52 28.464 540.688 28.662 540.892 28.83C541.096 28.998 541.33 29.13 541.594 29.226C541.858 29.31 542.128 29.352 542.404 29.352C542.692 29.352 542.968 29.304 543.232 29.208C543.496 29.112 543.73 28.98 543.934 28.812C544.138 28.644 544.3 28.446 544.42 28.218C544.54 27.978 544.6 27.72 544.6 27.444ZM540.604 22.206C540.604 22.458 540.658 22.68 540.766 22.872C540.874 23.052 541.012 23.208 541.18 23.34C541.36 23.46 541.552 23.556 541.756 23.628C541.972 23.688 542.188 23.718 542.404 23.718C542.608 23.718 542.818 23.688 543.034 23.628C543.25 23.556 543.442 23.454 543.61 23.322C543.79 23.19 543.934 23.034 544.042 22.854C544.15 22.662 544.204 22.44 544.204 22.188C544.204 21.744 544.024 21.39 543.664 21.126C543.316 20.862 542.89 20.73 542.386 20.73C541.894 20.73 541.474 20.868 541.126 21.144C540.778 21.408 540.604 21.762 540.604 22.206ZM558.901 26.094C558.901 26.886 558.781 27.618 558.541 28.29C558.313 28.95 557.989 29.526 557.569 30.018C557.161 30.498 556.669 30.876 556.093 31.152C555.529 31.416 554.917 31.548 554.257 31.548C553.585 31.548 552.967 31.416 552.403 31.152C551.839 30.876 551.347 30.498 550.927 30.018C550.519 29.526 550.195 28.95 549.955 28.29C549.727 27.618 549.613 26.886 549.613 26.094C549.613 25.302 549.727 24.576 549.955 23.916C550.195 23.244 550.519 22.668 550.927 22.188C551.347 21.696 551.839 21.312 552.403 21.036C552.967 20.76 553.585 20.622 554.257 20.622C554.917 20.622 555.529 20.76 556.093 21.036C556.669 21.312 557.161 21.696 557.569 22.188C557.989 22.668 558.313 23.244 558.541 23.916C558.781 24.576 558.901 25.302 558.901 26.094ZM556.471 26.094C556.471 25.614 556.417 25.176 556.309 24.78C556.201 24.372 556.045 24.024 555.841 23.736C555.649 23.448 555.415 23.226 555.139 23.07C554.875 22.914 554.581 22.836 554.257 22.836C553.921 22.836 553.615 22.914 553.339 23.07C553.075 23.226 552.841 23.448 552.637 23.736C552.445 24.024 552.295 24.372 552.187 24.78C552.079 25.176 552.025 25.614 552.025 26.094C552.025 26.574 552.079 27.012 552.187 27.408C552.295 27.804 552.445 28.146 552.637 28.434C552.841 28.722 553.075 28.944 553.339 29.1C553.615 29.256 553.921 29.334 554.257 29.334C554.581 29.334 554.875 29.256 555.139 29.1C555.415 28.944 555.649 28.722 555.841 28.434C556.045 28.146 556.201 27.804 556.309 27.408C556.417 27.012 556.471 26.574 556.471 26.094ZM600.493 29.19V31.368H593.185V29.19H595.741V23.736C595.633 23.88 595.459 24.03 595.219 24.186C594.991 24.33 594.739 24.468 594.463 24.6C594.187 24.732 593.899 24.84 593.599 24.924C593.311 25.008 593.053 25.05 592.825 25.05V22.8C593.041 22.8 593.305 22.734 593.617 22.602C593.929 22.458 594.235 22.29 594.535 22.098C594.835 21.906 595.093 21.72 595.309 21.54C595.537 21.348 595.681 21.198 595.741 21.09H598.207V29.19H600.493ZM602.404 25.536C602.404 24.912 602.524 24.33 602.764 23.79C603.004 23.25 603.328 22.782 603.736 22.386C604.156 21.978 604.648 21.66 605.212 21.432C605.788 21.204 606.406 21.09 607.066 21.09C607.786 21.09 608.434 21.222 609.01 21.486C609.598 21.75 610.096 22.134 610.504 22.638C610.912 23.142 611.224 23.76 611.44 24.492C611.668 25.212 611.782 26.034 611.782 26.958C611.782 28.122 611.662 29.154 611.422 30.054C611.194 30.942 610.864 31.686 610.432 32.286C610.012 32.898 609.496 33.36 608.884 33.672C608.272 33.984 607.588 34.14 606.832 34.14C606.028 34.14 605.284 33.966 604.6 33.618C603.916 33.27 603.34 32.772 602.872 32.124L604.258 30.612C604.546 31.068 604.918 31.422 605.374 31.674C605.83 31.926 606.328 32.052 606.868 32.052C607.672 32.052 608.308 31.734 608.776 31.098C609.256 30.462 609.508 29.562 609.532 28.398C609.292 28.83 608.938 29.172 608.47 29.424C608.002 29.676 607.462 29.802 606.85 29.802C606.214 29.802 605.626 29.694 605.086 29.478C604.546 29.262 604.078 28.962 603.682 28.578C603.286 28.194 602.974 27.744 602.746 27.228C602.518 26.7 602.404 26.136 602.404 25.536ZM607.066 23.124C606.742 23.124 606.436 23.19 606.148 23.322C605.872 23.442 605.626 23.616 605.41 23.844C605.194 24.06 605.02 24.318 604.888 24.618C604.768 24.906 604.708 25.212 604.708 25.536C604.708 25.86 604.768 26.166 604.888 26.454C605.02 26.73 605.188 26.976 605.392 27.192C605.608 27.408 605.86 27.576 606.148 27.696C606.436 27.816 606.742 27.876 607.066 27.876C607.39 27.876 607.696 27.816 607.984 27.696C608.272 27.576 608.518 27.408 608.722 27.192C608.938 26.976 609.106 26.73 609.226 26.454C609.358 26.166 609.424 25.86 609.424 25.536C609.424 25.212 609.358 24.906 609.226 24.618C609.106 24.318 608.938 24.06 608.722 23.844C608.506 23.628 608.254 23.454 607.966 23.322C607.69 23.19 607.39 23.124 607.066 23.124ZM623.407 27.588C623.407 28.188 623.281 28.728 623.029 29.208C622.789 29.688 622.453 30.102 622.021 30.45C621.601 30.798 621.109 31.068 620.545 31.26C619.981 31.44 619.381 31.53 618.745 31.53C618.109 31.53 617.509 31.434 616.945 31.242C616.381 31.038 615.889 30.756 615.469 30.396C615.049 30.036 614.719 29.61 614.479 29.118C614.239 28.626 614.119 28.086 614.119 27.498C614.119 27.138 614.179 26.808 614.299 26.508C614.419 26.196 614.575 25.914 614.767 25.662C614.959 25.41 615.169 25.188 615.397 24.996C615.637 24.804 615.877 24.648 616.117 24.528C615.673 24.312 615.295 23.988 614.983 23.556C614.671 23.124 614.515 22.65 614.515 22.134C614.515 21.558 614.641 21.054 614.893 20.622C615.157 20.178 615.493 19.806 615.901 19.506C616.321 19.206 616.777 18.978 617.269 18.822C617.773 18.666 618.271 18.588 618.763 18.588C619.243 18.588 619.735 18.666 620.239 18.822C620.755 18.966 621.217 19.188 621.625 19.488C622.033 19.788 622.369 20.16 622.633 20.604C622.897 21.036 623.029 21.54 623.029 22.116C623.029 22.368 622.987 22.62 622.903 22.872C622.819 23.112 622.699 23.34 622.543 23.556C622.399 23.76 622.225 23.946 622.021 24.114C621.817 24.282 621.601 24.42 621.373 24.528C621.637 24.66 621.889 24.828 622.129 25.032C622.369 25.224 622.585 25.452 622.777 25.716C622.969 25.968 623.119 26.25 623.227 26.562C623.347 26.874 623.407 27.216 623.407 27.588ZM620.959 27.444C620.959 27.144 620.893 26.874 620.761 26.634C620.641 26.394 620.473 26.196 620.257 26.04C620.053 25.872 619.819 25.746 619.555 25.662C619.291 25.578 619.021 25.536 618.745 25.536C618.457 25.536 618.181 25.584 617.917 25.68C617.653 25.764 617.419 25.89 617.215 26.058C617.023 26.226 616.867 26.43 616.747 26.67C616.627 26.898 616.567 27.156 616.567 27.444C616.567 27.732 616.627 27.996 616.747 28.236C616.879 28.464 617.047 28.662 617.251 28.83C617.455 28.998 617.689 29.13 617.953 29.226C618.217 29.31 618.487 29.352 618.763 29.352C619.051 29.352 619.327 29.304 619.591 29.208C619.855 29.112 620.089 28.98 620.293 28.812C620.497 28.644 620.659 28.446 620.779 28.218C620.899 27.978 620.959 27.72 620.959 27.444ZM616.963 22.206C616.963 22.458 617.017 22.68 617.125 22.872C617.233 23.052 617.371 23.208 617.539 23.34C617.719 23.46 617.911 23.556 618.115 23.628C618.331 23.688 618.547 23.718 618.763 23.718C618.967 23.718 619.177 23.688 619.393 23.628C619.609 23.556 619.801 23.454 619.969 23.322C620.149 23.19 620.293 23.034 620.401 22.854C620.509 22.662 620.563 22.44 620.563 22.188C620.563 21.744 620.383 21.39 620.023 21.126C619.675 20.862 619.249 20.73 618.745 20.73C618.253 20.73 617.833 20.868 617.485 21.144C617.137 21.408 616.963 21.762 616.963 22.206ZM633.55 29.19V31.368H626.242V29.19H628.798V23.736C628.69 23.88 628.516 24.03 628.276 24.186C628.048 24.33 627.796 24.468 627.52 24.6C627.244 24.732 626.956 24.84 626.656 24.924C626.368 25.008 626.11 25.05 625.882 25.05V22.8C626.098 22.8 626.362 22.734 626.674 22.602C626.986 22.458 627.292 22.29 627.592 22.098C627.892 21.906 628.15 21.72 628.366 21.54C628.594 21.348 628.738 21.198 628.798 21.09H631.264V29.19H633.55ZM641.153 27.516V25.338H646.607V27.516H641.153ZM662.217 29.19V31.368H654.909V29.19H657.465V23.736C657.357 23.88 657.183 24.03 656.943 24.186C656.715 24.33 656.463 24.468 656.187 24.6C655.911 24.732 655.623 24.84 655.323 24.924C655.035 25.008 654.777 25.05 654.549 25.05V22.8C654.765 22.8 655.029 22.734 655.341 22.602C655.653 22.458 655.959 22.29 656.259 22.098C656.559 21.906 656.817 21.72 657.033 21.54C657.261 21.348 657.405 21.198 657.465 21.09H659.931V29.19H662.217ZM664.127 25.536C664.127 24.912 664.247 24.33 664.487 23.79C664.727 23.25 665.051 22.782 665.459 22.386C665.879 21.978 666.371 21.66 666.935 21.432C667.511 21.204 668.129 21.09 668.789 21.09C669.509 21.09 670.157 21.222 670.733 21.486C671.321 21.75 671.819 22.134 672.227 22.638C672.635 23.142 672.947 23.76 673.163 24.492C673.391 25.212 673.505 26.034 673.505 26.958C673.505 28.122 673.385 29.154 673.145 30.054C672.917 30.942 672.587 31.686 672.155 32.286C671.735 32.898 671.219 33.36 670.607 33.672C669.995 33.984 669.311 34.14 668.555 34.14C667.751 34.14 667.007 33.966 666.323 33.618C665.639 33.27 665.063 32.772 664.595 32.124L665.981 30.612C666.269 31.068 666.641 31.422 667.097 31.674C667.553 31.926 668.051 32.052 668.591 32.052C669.395 32.052 670.031 31.734 670.499 31.098C670.979 30.462 671.231 29.562 671.255 28.398C671.015 28.83 670.661 29.172 670.193 29.424C669.725 29.676 669.185 29.802 668.573 29.802C667.937 29.802 667.349 29.694 666.809 29.478C666.269 29.262 665.801 28.962 665.405 28.578C665.009 28.194 664.697 27.744 664.469 27.228C664.241 26.7 664.127 26.136 664.127 25.536ZM668.789 23.124C668.465 23.124 668.159 23.19 667.871 23.322C667.595 23.442 667.349 23.616 667.133 23.844C666.917 24.06 666.743 24.318 666.611 24.618C666.491 24.906 666.431 25.212 666.431 25.536C666.431 25.86 666.491 26.166 666.611 26.454C666.743 26.73 666.911 26.976 667.115 27.192C667.331 27.408 667.583 27.576 667.871 27.696C668.159 27.816 668.465 27.876 668.789 27.876C669.113 27.876 669.419 27.816 669.707 27.696C669.995 27.576 670.241 27.408 670.445 27.192C670.661 26.976 670.829 26.73 670.949 26.454C671.081 26.166 671.147 25.86 671.147 25.536C671.147 25.212 671.081 24.906 670.949 24.618C670.829 24.318 670.661 24.06 670.445 23.844C670.229 23.628 669.977 23.454 669.689 23.322C669.413 23.19 669.113 23.124 668.789 23.124ZM685.131 27.588C685.131 28.188 685.005 28.728 684.753 29.208C684.513 29.688 684.177 30.102 683.745 30.45C683.325 30.798 682.833 31.068 682.269 31.26C681.705 31.44 681.105 31.53 680.469 31.53C679.833 31.53 679.233 31.434 678.669 31.242C678.105 31.038 677.613 30.756 677.193 30.396C676.773 30.036 676.443 29.61 676.203 29.118C675.963 28.626 675.843 28.086 675.843 27.498C675.843 27.138 675.903 26.808 676.023 26.508C676.143 26.196 676.299 25.914 676.491 25.662C676.683 25.41 676.893 25.188 677.121 24.996C677.361 24.804 677.601 24.648 677.841 24.528C677.397 24.312 677.019 23.988 676.707 23.556C676.395 23.124 676.239 22.65 676.239 22.134C676.239 21.558 676.365 21.054 676.617 20.622C676.881 20.178 677.217 19.806 677.625 19.506C678.045 19.206 678.501 18.978 678.993 18.822C679.497 18.666 679.995 18.588 680.487 18.588C680.967 18.588 681.459 18.666 681.963 18.822C682.479 18.966 682.941 19.188 683.349 19.488C683.757 19.788 684.093 20.16 684.357 20.604C684.621 21.036 684.753 21.54 684.753 22.116C684.753 22.368 684.711 22.62 684.627 22.872C684.543 23.112 684.423 23.34 684.267 23.556C684.123 23.76 683.949 23.946 683.745 24.114C683.541 24.282 683.325 24.42 683.097 24.528C683.361 24.66 683.613 24.828 683.853 25.032C684.093 25.224 684.309 25.452 684.501 25.716C684.693 25.968 684.843 26.25 684.951 26.562C685.071 26.874 685.131 27.216 685.131 27.588ZM682.683 27.444C682.683 27.144 682.617 26.874 682.485 26.634C682.365 26.394 682.197 26.196 681.981 26.04C681.777 25.872 681.543 25.746 681.279 25.662C681.015 25.578 680.745 25.536 680.469 25.536C680.181 25.536 679.905 25.584 679.641 25.68C679.377 25.764 679.143 25.89 678.939 26.058C678.747 26.226 678.591 26.43 678.471 26.67C678.351 26.898 678.291 27.156 678.291 27.444C678.291 27.732 678.351 27.996 678.471 28.236C678.603 28.464 678.771 28.662 678.975 28.83C679.179 28.998 679.413 29.13 679.677 29.226C679.941 29.31 680.211 29.352 680.487 29.352C680.775 29.352 681.051 29.304 681.315 29.208C681.579 29.112 681.813 28.98 682.017 28.812C682.221 28.644 682.383 28.446 682.503 28.218C682.623 27.978 682.683 27.72 682.683 27.444ZM678.687 22.206C678.687 22.458 678.741 22.68 678.849 22.872C678.957 23.052 679.095 23.208 679.263 23.34C679.443 23.46 679.635 23.556 679.839 23.628C680.055 23.688 680.271 23.718 680.487 23.718C680.691 23.718 680.901 23.688 681.117 23.628C681.333 23.556 681.525 23.454 681.693 23.322C681.873 23.19 682.017 23.034 682.125 22.854C682.233 22.662 682.287 22.44 682.287 22.188C682.287 21.744 682.107 21.39 681.747 21.126C681.399 20.862 680.973 20.73 680.469 20.73C679.977 20.73 679.557 20.868 679.209 21.144C678.861 21.408 678.687 21.762 678.687 22.206ZM692.034 25.626C692.634 25.626 693.192 25.728 693.708 25.932C694.224 26.124 694.668 26.4 695.04 26.76C695.412 27.12 695.7 27.552 695.904 28.056C696.12 28.56 696.228 29.118 696.228 29.73C696.228 30.378 696.108 30.966 695.868 31.494C695.64 32.022 695.316 32.472 694.896 32.844C694.476 33.228 693.978 33.522 693.402 33.726C692.826 33.942 692.202 34.05 691.53 34.05C690.594 34.05 689.754 33.852 689.01 33.456C688.278 33.06 687.72 32.52 687.336 31.836L688.722 30.396C689.058 30.864 689.478 31.236 689.982 31.512C690.486 31.788 691.008 31.926 691.548 31.926C692.196 31.926 692.724 31.734 693.132 31.35C693.552 30.954 693.762 30.432 693.762 29.784C693.762 29.16 693.564 28.656 693.168 28.272C692.784 27.888 692.292 27.696 691.692 27.696C691.296 27.696 690.924 27.786 690.576 27.966C690.24 28.146 689.97 28.392 689.766 28.704H687.66C687.66 28.668 687.684 28.536 687.732 28.308C687.78 28.068 687.84 27.768 687.912 27.408C687.984 27.036 688.062 26.628 688.146 26.184C688.23 25.728 688.32 25.266 688.416 24.798C688.632 23.694 688.872 22.458 689.136 21.09H695.436V23.286H690.882L690.36 26.148C690.504 25.992 690.714 25.866 690.99 25.77C691.278 25.674 691.626 25.626 692.034 25.626ZM742.711 29.19V31.368H735.403V29.19H737.959V23.736C737.851 23.88 737.677 24.03 737.437 24.186C737.209 24.33 736.957 24.468 736.681 24.6C736.405 24.732 736.117 24.84 735.817 24.924C735.529 25.008 735.271 25.05 735.043 25.05V22.8C735.259 22.8 735.523 22.734 735.835 22.602C736.147 22.458 736.453 22.29 736.753 22.098C737.053 21.906 737.311 21.72 737.527 21.54C737.755 21.348 737.899 21.198 737.959 21.09H740.425V29.19H742.711ZM744.621 25.536C744.621 24.912 744.741 24.33 744.981 23.79C745.221 23.25 745.545 22.782 745.953 22.386C746.373 21.978 746.865 21.66 747.429 21.432C748.005 21.204 748.623 21.09 749.283 21.09C750.003 21.09 750.651 21.222 751.227 21.486C751.815 21.75 752.313 22.134 752.721 22.638C753.129 23.142 753.441 23.76 753.657 24.492C753.885 25.212 753.999 26.034 753.999 26.958C753.999 28.122 753.879 29.154 753.639 30.054C753.411 30.942 753.081 31.686 752.649 32.286C752.229 32.898 751.713 33.36 751.101 33.672C750.489 33.984 749.805 34.14 749.049 34.14C748.245 34.14 747.501 33.966 746.817 33.618C746.133 33.27 745.557 32.772 745.089 32.124L746.475 30.612C746.763 31.068 747.135 31.422 747.591 31.674C748.047 31.926 748.545 32.052 749.085 32.052C749.889 32.052 750.525 31.734 750.993 31.098C751.473 30.462 751.725 29.562 751.749 28.398C751.509 28.83 751.155 29.172 750.687 29.424C750.219 29.676 749.679 29.802 749.067 29.802C748.431 29.802 747.843 29.694 747.303 29.478C746.763 29.262 746.295 28.962 745.899 28.578C745.503 28.194 745.191 27.744 744.963 27.228C744.735 26.7 744.621 26.136 744.621 25.536ZM749.283 23.124C748.959 23.124 748.653 23.19 748.365 23.322C748.089 23.442 747.843 23.616 747.627 23.844C747.411 24.06 747.237 24.318 747.105 24.618C746.985 24.906 746.925 25.212 746.925 25.536C746.925 25.86 746.985 26.166 747.105 26.454C747.237 26.73 747.405 26.976 747.609 27.192C747.825 27.408 748.077 27.576 748.365 27.696C748.653 27.816 748.959 27.876 749.283 27.876C749.607 27.876 749.913 27.816 750.201 27.696C750.489 27.576 750.735 27.408 750.939 27.192C751.155 26.976 751.323 26.73 751.443 26.454C751.575 26.166 751.641 25.86 751.641 25.536C751.641 25.212 751.575 24.906 751.443 24.618C751.323 24.318 751.155 24.06 750.939 23.844C750.723 23.628 750.471 23.454 750.183 23.322C749.907 23.19 749.607 23.124 749.283 23.124ZM765.625 27.588C765.625 28.188 765.499 28.728 765.247 29.208C765.007 29.688 764.671 30.102 764.239 30.45C763.819 30.798 763.327 31.068 762.763 31.26C762.199 31.44 761.599 31.53 760.963 31.53C760.327 31.53 759.727 31.434 759.163 31.242C758.599 31.038 758.107 30.756 757.687 30.396C757.267 30.036 756.937 29.61 756.697 29.118C756.457 28.626 756.337 28.086 756.337 27.498C756.337 27.138 756.397 26.808 756.517 26.508C756.637 26.196 756.793 25.914 756.985 25.662C757.177 25.41 757.387 25.188 757.615 24.996C757.855 24.804 758.095 24.648 758.335 24.528C757.891 24.312 757.513 23.988 757.201 23.556C756.889 23.124 756.733 22.65 756.733 22.134C756.733 21.558 756.859 21.054 757.111 20.622C757.375 20.178 757.711 19.806 758.119 19.506C758.539 19.206 758.995 18.978 759.487 18.822C759.991 18.666 760.489 18.588 760.981 18.588C761.461 18.588 761.953 18.666 762.457 18.822C762.973 18.966 763.435 19.188 763.843 19.488C764.251 19.788 764.587 20.16 764.851 20.604C765.115 21.036 765.247 21.54 765.247 22.116C765.247 22.368 765.205 22.62 765.121 22.872C765.037 23.112 764.917 23.34 764.761 23.556C764.617 23.76 764.443 23.946 764.239 24.114C764.035 24.282 763.819 24.42 763.591 24.528C763.855 24.66 764.107 24.828 764.347 25.032C764.587 25.224 764.803 25.452 764.995 25.716C765.187 25.968 765.337 26.25 765.445 26.562C765.565 26.874 765.625 27.216 765.625 27.588ZM763.177 27.444C763.177 27.144 763.111 26.874 762.979 26.634C762.859 26.394 762.691 26.196 762.475 26.04C762.271 25.872 762.037 25.746 761.773 25.662C761.509 25.578 761.239 25.536 760.963 25.536C760.675 25.536 760.399 25.584 760.135 25.68C759.871 25.764 759.637 25.89 759.433 26.058C759.241 26.226 759.085 26.43 758.965 26.67C758.845 26.898 758.785 27.156 758.785 27.444C758.785 27.732 758.845 27.996 758.965 28.236C759.097 28.464 759.265 28.662 759.469 28.83C759.673 28.998 759.907 29.13 760.171 29.226C760.435 29.31 760.705 29.352 760.981 29.352C761.269 29.352 761.545 29.304 761.809 29.208C762.073 29.112 762.307 28.98 762.511 28.812C762.715 28.644 762.877 28.446 762.997 28.218C763.117 27.978 763.177 27.72 763.177 27.444ZM759.181 22.206C759.181 22.458 759.235 22.68 759.343 22.872C759.451 23.052 759.589 23.208 759.757 23.34C759.937 23.46 760.129 23.556 760.333 23.628C760.549 23.688 760.765 23.718 760.981 23.718C761.185 23.718 761.395 23.688 761.611 23.628C761.827 23.556 762.019 23.454 762.187 23.322C762.367 23.19 762.511 23.034 762.619 22.854C762.727 22.662 762.781 22.44 762.781 22.188C762.781 21.744 762.601 21.39 762.241 21.126C761.893 20.862 761.467 20.73 760.963 20.73C760.471 20.73 760.051 20.868 759.703 21.144C759.355 21.408 759.181 21.762 759.181 22.206ZM777.514 27.102C777.514 27.726 777.394 28.308 777.154 28.848C776.914 29.388 776.584 29.862 776.164 30.27C775.744 30.666 775.246 30.978 774.67 31.206C774.106 31.434 773.494 31.548 772.834 31.548C772.114 31.548 771.46 31.416 770.872 31.152C770.296 30.888 769.804 30.504 769.396 30C768.988 29.496 768.676 28.884 768.46 28.164C768.244 27.432 768.136 26.604 768.136 25.68C768.136 24.516 768.25 23.49 768.478 22.602C768.706 21.702 769.036 20.952 769.468 20.352C769.9 19.74 770.422 19.278 771.034 18.966C771.646 18.654 772.33 18.498 773.086 18.498C773.89 18.498 774.628 18.672 775.3 19.02C775.984 19.368 776.56 19.866 777.028 20.514L775.642 22.026C775.354 21.57 774.982 21.216 774.526 20.964C774.07 20.712 773.578 20.586 773.05 20.586C772.246 20.586 771.604 20.904 771.124 21.54C770.644 22.176 770.392 23.076 770.368 24.24C770.62 23.808 770.974 23.466 771.43 23.214C771.898 22.962 772.438 22.836 773.05 22.836C773.674 22.836 774.256 22.944 774.796 23.16C775.348 23.376 775.822 23.676 776.218 24.06C776.626 24.444 776.944 24.9 777.172 25.428C777.4 25.944 777.514 26.502 777.514 27.102ZM772.852 29.514C773.164 29.514 773.464 29.454 773.752 29.334C774.04 29.202 774.292 29.028 774.508 28.812C774.724 28.584 774.892 28.326 775.012 28.038C775.144 27.738 775.21 27.426 775.21 27.102C775.21 26.778 775.144 26.478 775.012 26.202C774.892 25.914 774.724 25.662 774.508 25.446C774.292 25.23 774.04 25.062 773.752 24.942C773.476 24.822 773.176 24.762 772.852 24.762C772.528 24.762 772.222 24.822 771.934 24.942C771.646 25.062 771.394 25.23 771.178 25.446C770.962 25.662 770.794 25.914 770.674 26.202C770.554 26.478 770.494 26.778 770.494 27.102C770.494 27.426 770.554 27.738 770.674 28.038C770.806 28.326 770.98 28.578 771.196 28.794C771.412 29.01 771.658 29.184 771.934 29.316C772.222 29.448 772.528 29.514 772.852 29.514ZM785.41 27.516V25.338H790.864V27.516H785.41ZM806.473 29.19V31.368H799.165V29.19H801.721V23.736C801.613 23.88 801.439 24.03 801.199 24.186C800.971 24.33 800.719 24.468 800.443 24.6C800.167 24.732 799.879 24.84 799.579 24.924C799.291 25.008 799.033 25.05 798.805 25.05V22.8C799.021 22.8 799.285 22.734 799.597 22.602C799.909 22.458 800.215 22.29 800.515 22.098C800.815 21.906 801.073 21.72 801.289 21.54C801.517 21.348 801.661 21.198 801.721 21.09H804.187V29.19H806.473ZM808.384 25.536C808.384 24.912 808.504 24.33 808.744 23.79C808.984 23.25 809.308 22.782 809.716 22.386C810.136 21.978 810.628 21.66 811.192 21.432C811.768 21.204 812.386 21.09 813.046 21.09C813.766 21.09 814.414 21.222 814.99 21.486C815.578 21.75 816.076 22.134 816.484 22.638C816.892 23.142 817.204 23.76 817.42 24.492C817.648 25.212 817.762 26.034 817.762 26.958C817.762 28.122 817.642 29.154 817.402 30.054C817.174 30.942 816.844 31.686 816.412 32.286C815.992 32.898 815.476 33.36 814.864 33.672C814.252 33.984 813.568 34.14 812.812 34.14C812.008 34.14 811.264 33.966 810.58 33.618C809.896 33.27 809.32 32.772 808.852 32.124L810.238 30.612C810.526 31.068 810.898 31.422 811.354 31.674C811.81 31.926 812.308 32.052 812.848 32.052C813.652 32.052 814.288 31.734 814.756 31.098C815.236 30.462 815.488 29.562 815.512 28.398C815.272 28.83 814.918 29.172 814.45 29.424C813.982 29.676 813.442 29.802 812.83 29.802C812.194 29.802 811.606 29.694 811.066 29.478C810.526 29.262 810.058 28.962 809.662 28.578C809.266 28.194 808.954 27.744 808.726 27.228C808.498 26.7 808.384 26.136 808.384 25.536ZM813.046 23.124C812.722 23.124 812.416 23.19 812.128 23.322C811.852 23.442 811.606 23.616 811.39 23.844C811.174 24.06 811 24.318 810.868 24.618C810.748 24.906 810.688 25.212 810.688 25.536C810.688 25.86 810.748 26.166 810.868 26.454C811 26.73 811.168 26.976 811.372 27.192C811.588 27.408 811.84 27.576 812.128 27.696C812.416 27.816 812.722 27.876 813.046 27.876C813.37 27.876 813.676 27.816 813.964 27.696C814.252 27.576 814.498 27.408 814.702 27.192C814.918 26.976 815.086 26.73 815.206 26.454C815.338 26.166 815.404 25.86 815.404 25.536C815.404 25.212 815.338 24.906 815.206 24.618C815.086 24.318 814.918 24.06 814.702 23.844C814.486 23.628 814.234 23.454 813.946 23.322C813.67 23.19 813.37 23.124 813.046 23.124ZM819.884 25.536C819.884 24.912 820.004 24.33 820.244 23.79C820.484 23.25 820.808 22.782 821.216 22.386C821.636 21.978 822.128 21.66 822.692 21.432C823.268 21.204 823.886 21.09 824.546 21.09C825.266 21.09 825.914 21.222 826.49 21.486C827.078 21.75 827.576 22.134 827.984 22.638C828.392 23.142 828.704 23.76 828.92 24.492C829.148 25.212 829.262 26.034 829.262 26.958C829.262 28.122 829.142 29.154 828.902 30.054C828.674 30.942 828.344 31.686 827.912 32.286C827.492 32.898 826.976 33.36 826.364 33.672C825.752 33.984 825.068 34.14 824.312 34.14C823.508 34.14 822.764 33.966 822.08 33.618C821.396 33.27 820.82 32.772 820.352 32.124L821.738 30.612C822.026 31.068 822.398 31.422 822.854 31.674C823.31 31.926 823.808 32.052 824.348 32.052C825.152 32.052 825.788 31.734 826.256 31.098C826.736 30.462 826.988 29.562 827.012 28.398C826.772 28.83 826.418 29.172 825.95 29.424C825.482 29.676 824.942 29.802 824.33 29.802C823.694 29.802 823.106 29.694 822.566 29.478C822.026 29.262 821.558 28.962 821.162 28.578C820.766 28.194 820.454 27.744 820.226 27.228C819.998 26.7 819.884 26.136 819.884 25.536ZM824.546 23.124C824.222 23.124 823.916 23.19 823.628 23.322C823.352 23.442 823.106 23.616 822.89 23.844C822.674 24.06 822.5 24.318 822.368 24.618C822.248 24.906 822.188 25.212 822.188 25.536C822.188 25.86 822.248 26.166 822.368 26.454C822.5 26.73 822.668 26.976 822.872 27.192C823.088 27.408 823.34 27.576 823.628 27.696C823.916 27.816 824.222 27.876 824.546 27.876C824.87 27.876 825.176 27.816 825.464 27.696C825.752 27.576 825.998 27.408 826.202 27.192C826.418 26.976 826.586 26.73 826.706 26.454C826.838 26.166 826.904 25.86 826.904 25.536C826.904 25.212 826.838 24.906 826.706 24.618C826.586 24.318 826.418 24.06 826.202 23.844C825.986 23.628 825.734 23.454 825.446 23.322C825.17 23.19 824.87 23.124 824.546 23.124ZM840.977 26.094C840.977 26.886 840.857 27.618 840.617 28.29C840.389 28.95 840.065 29.526 839.645 30.018C839.237 30.498 838.745 30.876 838.169 31.152C837.605 31.416 836.993 31.548 836.333 31.548C835.661 31.548 835.043 31.416 834.479 31.152C833.915 30.876 833.423 30.498 833.003 30.018C832.595 29.526 832.271 28.95 832.031 28.29C831.803 27.618 831.689 26.886 831.689 26.094C831.689 25.302 831.803 24.576 832.031 23.916C832.271 23.244 832.595 22.668 833.003 22.188C833.423 21.696 833.915 21.312 834.479 21.036C835.043 20.76 835.661 20.622 836.333 20.622C836.993 20.622 837.605 20.76 838.169 21.036C838.745 21.312 839.237 21.696 839.645 22.188C840.065 22.668 840.389 23.244 840.617 23.916C840.857 24.576 840.977 25.302 840.977 26.094ZM838.547 26.094C838.547 25.614 838.493 25.176 838.385 24.78C838.277 24.372 838.121 24.024 837.917 23.736C837.725 23.448 837.491 23.226 837.215 23.07C836.951 22.914 836.657 22.836 836.333 22.836C835.997 22.836 835.691 22.914 835.415 23.07C835.151 23.226 834.917 23.448 834.713 23.736C834.521 24.024 834.371 24.372 834.263 24.78C834.155 25.176 834.101 25.614 834.101 26.094C834.101 26.574 834.155 27.012 834.263 27.408C834.371 27.804 834.521 28.146 834.713 28.434C834.917 28.722 835.151 28.944 835.415 29.1C835.691 29.256 835.997 29.334 836.333 29.334C836.657 29.334 836.951 29.256 837.215 29.1C837.491 28.944 837.725 28.722 837.917 28.434C838.121 28.146 838.277 27.804 838.385 27.408C838.493 27.012 838.547 26.574 838.547 26.094Z" fill="black"/>
</g>
<line y1="-2.5" x2="48.7849" y2="-2.5" transform="matrix(-0.0695673 0.997577 -1 0 152.17 3.04169)" stroke="black" stroke-width="5"/>
<line y1="-2.5" x2="48.7848" y2="-2.5" transform="matrix(-0.0695635 0.997578 -1 0 293.394 2.02771)" stroke="black" stroke-width="5"/>
<line y1="-2.5" x2="48.7849" y2="-2.5" transform="matrix(-0.069571 0.997577 -1 0 436.13 1.01392)" stroke="black" stroke-width="5"/>
<line y1="-2.5" x2="48.7848" y2="-2.5" transform="matrix(-0.0695711 0.997577 -1 0 579.618 0)" stroke="black" stroke-width="5"/>
<line y1="-2.5" x2="48.7848" y2="-2.5" transform="matrix(-0.0695635 0.997578 -1 0 722.353 1.01392)" stroke="black" stroke-width="5"/>
<defs>
<filter id="filter0_d" x="16.9136" y="18.498" width="828.064" height="23.642" filterUnits="userSpaceOnUse" color-interpolation-filters="sRGB">
<feFlood flood-opacity="0" result="BackgroundImageFix"/>
<feColorMatrix in="SourceAlpha" type="matrix" values="0 0 0 0 0 0 0 0 0 0 0 0 0 0 0 0 0 0 127 0"/>
<feOffset dy="4"/>
<feGaussianBlur stdDeviation="2"/>
<feColorMatrix type="matrix" values="0 0 0 0 0 0 0 0 0 0 0 0 0 0 0 0 0 0 0.25 0"/>
<feBlend mode="normal" in2="BackgroundImageFix" result="effect1_dropShadow"/>
<feBlend mode="normal" in="SourceGraphic" in2="effect1_dropShadow" result="shape"/>
</filter>
</defs>
</svg>
