<svg width="178" height="37" viewBox="0 0 178 37" fill="none" xmlns="http://www.w3.org/2000/svg">
<g filter="url(#filter0_d)">
<rect x="4" width="170" height="29" rx="14.5" fill="#F6C25B"/>
</g>
<path d="M62.9052 12.396C62.5452 12.18 62.1732 11.988 61.7892 11.82C61.4652 11.676 61.0992 11.544 60.6912 11.424C60.2952 11.292 59.9052 11.226 59.5212 11.226C59.2092 11.226 58.9572 11.274 58.7652 11.37C58.5852 11.466 58.4952 11.628 58.4952 11.856C58.4952 12.024 58.5492 12.162 58.6572 12.27C58.7652 12.378 58.9212 12.48 59.1252 12.576C59.3292 12.66 59.5752 12.744 59.8632 12.828C60.1632 12.912 60.4992 13.014 60.8712 13.134C61.4592 13.314 61.9872 13.512 62.4552 13.728C62.9352 13.944 63.3432 14.202 63.6792 14.502C64.0152 14.79 64.2732 15.144 64.4532 15.564C64.6332 15.984 64.7232 16.494 64.7232 17.094C64.7232 17.862 64.5792 18.51 64.2912 19.038C64.0152 19.554 63.6432 19.968 63.1752 20.28C62.7192 20.592 62.1972 20.82 61.6092 20.964C61.0332 21.096 60.4512 21.162 59.8632 21.162C59.3952 21.162 58.9152 21.126 58.4232 21.054C57.9312 20.982 57.4392 20.88 56.9472 20.748C56.4672 20.616 55.9992 20.46 55.5432 20.28C55.0992 20.1 54.6852 19.896 54.3012 19.668L55.8132 16.59C56.2332 16.854 56.6712 17.088 57.1272 17.292C57.5112 17.472 57.9432 17.634 58.4232 17.778C58.9152 17.922 59.4132 17.994 59.9172 17.994C60.3012 17.994 60.5652 17.946 60.7092 17.85C60.8652 17.742 60.9432 17.604 60.9432 17.436C60.9432 17.256 60.8652 17.106 60.7092 16.986C60.5652 16.854 60.3612 16.74 60.0972 16.644C59.8332 16.548 59.5272 16.452 59.1792 16.356C58.8432 16.26 58.4832 16.146 58.0992 16.014C57.5352 15.822 57.0492 15.618 56.6412 15.402C56.2332 15.174 55.8972 14.922 55.6332 14.646C55.3692 14.358 55.1712 14.034 55.0392 13.674C54.9192 13.314 54.8592 12.9 54.8592 12.432C54.8592 11.724 54.9852 11.1 55.2372 10.56C55.5012 10.02 55.8552 9.57 56.2992 9.21C56.7432 8.85 57.2472 8.58 57.8112 8.4C58.3872 8.208 58.9932 8.112 59.6292 8.112C60.0972 8.112 60.5532 8.16 60.9972 8.256C61.4412 8.34 61.8672 8.454 62.2752 8.598C62.6952 8.73 63.0852 8.88 63.4452 9.048C63.8052 9.204 64.1292 9.354 64.4172 9.498L62.9052 12.396ZM75.3825 17.94V21H66.2745V8.22H75.2205V11.28H69.7845V13.08H74.4285V15.924H69.7845V17.94H75.3825ZM80.3268 8.22H83.5308L87.9588 21H84.3948L83.6208 18.498H80.2188L79.4628 21H75.8808L80.3268 8.22ZM83.0628 16.158L81.9288 12.198L80.7408 16.158H83.0628ZM89.0206 21V8.22H94.8886C95.5126 8.22 96.0886 8.352 96.6166 8.616C97.1446 8.868 97.5946 9.204 97.9666 9.624C98.3506 10.032 98.6506 10.506 98.8666 11.046C99.0826 11.574 99.1906 12.108 99.1906 12.648C99.1906 13.392 99.0286 14.088 98.7046 14.736C98.3806 15.372 97.9306 15.894 97.3546 16.302L100.055 21H96.0946L93.8446 17.076H92.5306V21H89.0206ZM92.5306 14.016H94.7446C94.9606 14.016 95.1586 13.896 95.3386 13.656C95.5306 13.416 95.6266 13.08 95.6266 12.648C95.6266 12.204 95.5186 11.868 95.3026 11.64C95.0866 11.4 94.8706 11.28 94.6546 11.28H92.5306V14.016ZM100.307 14.502C100.307 13.722 100.451 12.954 100.739 12.198C101.039 11.442 101.471 10.764 102.035 10.164C102.599 9.564 103.283 9.078 104.087 8.706C104.891 8.334 105.809 8.148 106.841 8.148C108.077 8.148 109.145 8.406 110.045 8.922C110.957 9.426 111.635 10.098 112.079 10.938L109.397 12.846C109.277 12.534 109.115 12.276 108.911 12.072C108.719 11.868 108.503 11.706 108.263 11.586C108.023 11.466 107.771 11.382 107.507 11.334C107.255 11.286 107.009 11.262 106.769 11.262C106.265 11.262 105.827 11.364 105.455 11.568C105.095 11.76 104.795 12.018 104.555 12.342C104.327 12.654 104.153 13.014 104.033 13.422C103.925 13.818 103.871 14.214 103.871 14.61C103.871 15.054 103.937 15.48 104.069 15.888C104.201 16.296 104.393 16.656 104.645 16.968C104.897 17.28 105.203 17.532 105.563 17.724C105.935 17.904 106.349 17.994 106.805 17.994C107.045 17.994 107.291 17.97 107.543 17.922C107.795 17.862 108.035 17.772 108.263 17.652C108.503 17.52 108.713 17.358 108.893 17.166C109.085 16.962 109.235 16.716 109.343 16.428L112.205 18.138C112.013 18.606 111.719 19.026 111.323 19.398C110.939 19.77 110.495 20.082 109.991 20.334C109.499 20.586 108.965 20.778 108.389 20.91C107.825 21.042 107.273 21.108 106.733 21.108C105.785 21.108 104.915 20.922 104.123 20.55C103.343 20.166 102.665 19.662 102.089 19.038C101.525 18.414 101.087 17.706 100.775 16.914C100.463 16.122 100.307 15.318 100.307 14.502ZM124.758 8.22V21H121.248V15.996H116.964V21H113.454V8.22H116.964V12.936H121.248V8.22H124.758Z" fill="black"/>
<defs>
<filter id="filter0_d" x="0" y="0" width="178" height="37" filterUnits="userSpaceOnUse" color-interpolation-filters="sRGB">
<feFlood flood-opacity="0" result="BackgroundImageFix"/>
<feColorMatrix in="SourceAlpha" type="matrix" values="0 0 0 0 0 0 0 0 0 0 0 0 0 0 0 0 0 0 127 0"/>
<feOffset dy="4"/>
<feGaussianBlur stdDeviation="2"/>
<feColorMatrix type="matrix" values="0 0 0 0 0 0 0 0 0 0 0 0 0 0 0 0 0 0 0.25 0"/>
<feBlend mode="normal" in2="BackgroundImageFix" result="effect1_dropShadow"/>
<feBlend mode="normal" in="SourceGraphic" in2="effect1_dropShadow" result="shape"/>
</filter>
</defs>
</svg>
