<svg width="306" height="53" viewBox="0 0 306 53" fill="none" xmlns="http://www.w3.org/2000/svg">
<g filter="url(#filter0_d)">
<rect x="4" width="298" height="44.7146" rx="22.3573" fill="white"/>
</g>
<path d="M37.6418 20.2282C37.5578 20.1442 37.4018 20.0302 37.1738 19.8862C36.9578 19.7422 36.6878 19.6042 36.3638 19.4722C36.0518 19.3282 35.7098 19.2082 35.3378 19.1122C34.9658 19.0162 34.5878 18.9682 34.2038 18.9682C33.5198 18.9682 33.0098 19.0942 32.6738 19.3462C32.3378 19.5982 32.1698 19.9522 32.1698 20.4082C32.1698 20.6722 32.2298 20.8942 32.3498 21.0742C32.4818 21.2422 32.6678 21.3922 32.9078 21.5242C33.1478 21.6562 33.4478 21.7762 33.8078 21.8842C34.1798 21.9922 34.6058 22.1062 35.0858 22.2262C35.7098 22.3942 36.2738 22.5742 36.7778 22.7662C37.2938 22.9582 37.7258 23.1982 38.0738 23.4862C38.4338 23.7742 38.7098 24.1222 38.9018 24.5302C39.0938 24.9262 39.1898 25.4182 39.1898 26.0062C39.1898 26.6902 39.0578 27.2782 38.7938 27.7702C38.5418 28.2502 38.1938 28.6402 37.7498 28.9402C37.3178 29.2402 36.8138 29.4622 36.2378 29.6062C35.6738 29.7382 35.0798 29.8042 34.4558 29.8042C33.4958 29.8042 32.5478 29.6602 31.6118 29.3722C30.6758 29.0842 29.8358 28.6762 29.0918 28.1482L30.1898 26.0062C30.2978 26.1142 30.4898 26.2582 30.7658 26.4382C31.0538 26.6062 31.3898 26.7802 31.7738 26.9602C32.1578 27.1282 32.5838 27.2722 33.0518 27.3922C33.5198 27.5122 33.9998 27.5722 34.4918 27.5722C35.8598 27.5722 36.5438 27.1342 36.5438 26.2582C36.5438 25.9822 36.4658 25.7482 36.3098 25.5562C36.1538 25.3642 35.9318 25.1962 35.6438 25.0522C35.3558 24.9082 35.0078 24.7762 34.5998 24.6562C34.1918 24.5362 33.7358 24.4042 33.2318 24.2602C32.6198 24.0922 32.0858 23.9122 31.6298 23.7202C31.1858 23.5162 30.8138 23.2822 30.5138 23.0182C30.2138 22.7422 29.9858 22.4302 29.8298 22.0822C29.6858 21.7222 29.6138 21.2962 29.6138 20.8042C29.6138 20.1562 29.7338 19.5802 29.9738 19.0762C30.2138 18.5722 30.5438 18.1522 30.9638 17.8162C31.3958 17.4802 31.8938 17.2282 32.4578 17.0602C33.0218 16.8802 33.6278 16.7902 34.2758 16.7902C35.1758 16.7902 36.0038 16.9342 36.7598 17.2222C37.5158 17.4982 38.1758 17.8282 38.7398 18.2122L37.6418 20.2282ZM45.4569 29.8402C44.7009 29.8402 44.0169 29.7142 43.4049 29.4622C42.7929 29.1982 42.2709 28.8442 41.8389 28.4002C41.4069 27.9562 41.0709 27.4402 40.8309 26.8522C40.6029 26.2642 40.4889 25.6462 40.4889 24.9982C40.4889 24.3262 40.6029 23.6962 40.8309 23.1082C41.0589 22.5082 41.3889 21.9862 41.8209 21.5422C42.2529 21.0862 42.7749 20.7262 43.3869 20.4622C44.0109 20.1982 44.7069 20.0662 45.4749 20.0662C46.2429 20.0662 46.9269 20.1982 47.5269 20.4622C48.1389 20.7262 48.6549 21.0802 49.0749 21.5242C49.5069 21.9682 49.8309 22.4842 50.0469 23.0722C50.2749 23.6602 50.3889 24.2722 50.3889 24.9082C50.3889 25.0642 50.3829 25.2142 50.3709 25.3582C50.3709 25.5022 50.3589 25.6222 50.3349 25.7182H43.0449C43.0809 26.0902 43.1709 26.4202 43.3149 26.7082C43.4589 26.9962 43.6449 27.2422 43.8729 27.4462C44.1009 27.6502 44.3589 27.8062 44.6469 27.9142C44.9349 28.0222 45.2349 28.0762 45.5469 28.0762C46.0269 28.0762 46.4769 27.9622 46.8969 27.7342C47.3289 27.4942 47.6229 27.1822 47.7789 26.7982L49.8489 27.3742C49.5009 28.0942 48.9429 28.6882 48.1749 29.1562C47.4189 29.6122 46.5129 29.8402 45.4569 29.8402ZM47.9049 24.1522C47.8449 23.4442 47.5809 22.8802 47.1129 22.4602C46.6569 22.0282 46.0989 21.8122 45.4389 21.8122C45.1149 21.8122 44.8089 21.8722 44.5209 21.9922C44.2449 22.1002 43.9989 22.2562 43.7829 22.4602C43.5669 22.6642 43.3869 22.9102 43.2429 23.1982C43.1109 23.4862 43.0329 23.8042 43.0089 24.1522H47.9049ZM54.6823 29.8402C54.2263 29.8402 53.8003 29.7682 53.4043 29.6242C53.0083 29.4682 52.6663 29.2582 52.3783 28.9942C52.0903 28.7182 51.8623 28.4002 51.6943 28.0402C51.5383 27.6802 51.4603 27.2842 51.4603 26.8522C51.4603 26.4082 51.5563 26.0002 51.7483 25.6282C51.9523 25.2442 52.2283 24.9202 52.5763 24.6562C52.9363 24.3922 53.3623 24.1882 53.8543 24.0442C54.3463 23.8882 54.8863 23.8102 55.4743 23.8102C55.8943 23.8102 56.3023 23.8462 56.6983 23.9182C57.1063 23.9902 57.4663 24.0922 57.7783 24.2242V23.6842C57.7783 23.0602 57.5983 22.5802 57.2383 22.2442C56.8903 21.9082 56.3683 21.7402 55.6723 21.7402C55.1683 21.7402 54.6763 21.8302 54.1963 22.0102C53.7163 22.1902 53.2243 22.4542 52.7203 22.8022L51.9823 21.2722C53.1943 20.4682 54.5023 20.0662 55.9063 20.0662C57.2623 20.0662 58.3123 20.4022 59.0563 21.0742C59.8123 21.7342 60.1903 22.6942 60.1903 23.9542V26.8882C60.1903 27.1402 60.2323 27.3202 60.3163 27.4282C60.4123 27.5362 60.5623 27.5962 60.7663 27.6082V29.6602C60.3583 29.7442 60.0043 29.7862 59.7043 29.7862C59.2483 29.7862 58.8943 29.6842 58.6423 29.4802C58.4023 29.2762 58.2523 29.0062 58.1923 28.6702L58.1383 28.1482C57.7183 28.7002 57.2083 29.1202 56.6083 29.4082C56.0083 29.6962 55.3663 29.8402 54.6823 29.8402ZM55.3663 28.0762C55.7743 28.0762 56.1583 28.0042 56.5183 27.8602C56.8903 27.7162 57.1783 27.5242 57.3823 27.2842C57.6463 27.0802 57.7783 26.8522 57.7783 26.6002V25.5202C57.4903 25.4122 57.1783 25.3282 56.8423 25.2682C56.5063 25.1962 56.1823 25.1602 55.8703 25.1602C55.2463 25.1602 54.7363 25.3042 54.3403 25.5922C53.9443 25.8682 53.7463 26.2222 53.7463 26.6542C53.7463 27.0622 53.9023 27.4042 54.2143 27.6802C54.5263 27.9442 54.9103 28.0762 55.3663 28.0762ZM68.3102 22.3162C67.5782 22.3282 66.9242 22.4722 66.3482 22.7482C65.7722 23.0122 65.3582 23.4142 65.1062 23.9542V29.6602H62.6942V20.2282H64.9082V22.2442C65.0762 21.9202 65.2742 21.6322 65.5022 21.3802C65.7302 21.1162 65.9762 20.8882 66.2402 20.6962C66.5042 20.5042 66.7682 20.3602 67.0322 20.2642C67.3082 20.1562 67.5722 20.1022 67.8242 20.1022C67.9562 20.1022 68.0522 20.1022 68.1122 20.1022C68.1842 20.1022 68.2502 20.1082 68.3102 20.1202V22.3162ZM68.8365 24.9442C68.8365 24.2842 68.9505 23.6602 69.1785 23.0722C69.4065 22.4842 69.7365 21.9682 70.1685 21.5242C70.6005 21.0802 71.1225 20.7262 71.7345 20.4622C72.3465 20.1982 73.0365 20.0662 73.8045 20.0662C74.8365 20.0662 75.7125 20.2882 76.4325 20.7322C77.1645 21.1762 77.7105 21.7582 78.0705 22.4782L75.7125 23.1982C75.5085 22.8502 75.2385 22.5862 74.9025 22.4062C74.5665 22.2142 74.1945 22.1182 73.7865 22.1182C73.4385 22.1182 73.1145 22.1902 72.8145 22.3342C72.5145 22.4662 72.2505 22.6582 72.0225 22.9102C71.8065 23.1502 71.6325 23.4442 71.5005 23.7922C71.3805 24.1402 71.3205 24.5242 71.3205 24.9442C71.3205 25.3642 71.3865 25.7482 71.5185 26.0962C71.6505 26.4442 71.8245 26.7442 72.0405 26.9962C72.2685 27.2482 72.5325 27.4462 72.8325 27.5902C73.1325 27.7222 73.4505 27.7882 73.7865 27.7882C74.2185 27.7882 74.6145 27.6802 74.9745 27.4642C75.3465 27.2482 75.6045 26.9842 75.7485 26.6722L78.1065 27.3922C77.7825 28.1122 77.2485 28.7002 76.5045 29.1562C75.7605 29.6122 74.8665 29.8402 73.8225 29.8402C73.0545 29.8402 72.3645 29.7082 71.7525 29.4442C71.1405 29.1802 70.6185 28.8262 70.1865 28.3822C69.7545 27.9262 69.4185 27.4042 69.1785 26.8162C68.9505 26.2162 68.8365 25.5922 68.8365 24.9442ZM88.6067 29.6602H86.1947V24.3682C86.1947 23.6242 86.0567 23.0782 85.7807 22.7302C85.5047 22.3702 85.1147 22.1902 84.6107 22.1902C84.3947 22.1902 84.1667 22.2382 83.9267 22.3342C83.6867 22.4302 83.4587 22.5682 83.2427 22.7482C83.0267 22.9162 82.8287 23.1202 82.6487 23.3602C82.4687 23.6002 82.3367 23.8642 82.2527 24.1522V29.6602H79.8407V16.5202H82.2527V21.9742C82.6007 21.3622 83.0687 20.8942 83.6567 20.5702C84.2567 20.2342 84.9167 20.0662 85.6367 20.0662C86.2487 20.0662 86.7467 20.1742 87.1307 20.3902C87.5147 20.5942 87.8147 20.8702 88.0307 21.2182C88.2467 21.5662 88.3967 21.9622 88.4807 22.4062C88.5647 22.8502 88.6067 23.3062 88.6067 23.7742V29.6602ZM95.4742 29.6602V27.0682H97.4542V29.6602H95.4742ZM99.7671 29.6602V27.0682H101.747V29.6602H99.7671ZM104.06 29.6602V27.0682H106.04V29.6602H104.06Z" fill="#6B6A6A" fill-opacity="0.87"/>
<defs>
<filter id="filter0_d" x="0" y="0" width="306" height="52.7146" filterUnits="userSpaceOnUse" color-interpolation-filters="sRGB">
<feFlood flood-opacity="0" result="BackgroundImageFix"/>
<feColorMatrix in="SourceAlpha" type="matrix" values="0 0 0 0 0 0 0 0 0 0 0 0 0 0 0 0 0 0 127 0"/>
<feOffset dy="4"/>
<feGaussianBlur stdDeviation="2"/>
<feColorMatrix type="matrix" values="0 0 0 0 0 0 0 0 0 0 0 0 0 0 0 0 0 0 0.25 0"/>
<feBlend mode="normal" in2="BackgroundImageFix" result="effect1_dropShadow"/>
<feBlend mode="normal" in="SourceGraphic" in2="effect1_dropShadow" result="shape"/>
</filter>
</defs>
</svg>
