<svg width="441" height="109" viewBox="0 0 441 109" fill="none" xmlns="http://www.w3.org/2000/svg">
<g filter="url(#filter0_d)">
<rect x="233.102" y="55.3398" width="203.899" height="44.7146" rx="5" fill="white"/>
</g>
<path d="M252.771 72.22L255.921 78.376L259.125 72.22H261.807L257.163 80.536V85H254.697V80.5L250.071 72.22H252.771ZM265.934 85.18C265.178 85.18 264.494 85.054 263.882 84.802C263.27 84.538 262.748 84.184 262.316 83.74C261.884 83.296 261.548 82.78 261.308 82.192C261.08 81.604 260.966 80.986 260.966 80.338C260.966 79.666 261.08 79.036 261.308 78.448C261.536 77.848 261.866 77.326 262.298 76.882C262.73 76.426 263.252 76.066 263.864 75.802C264.488 75.538 265.184 75.406 265.952 75.406C266.72 75.406 267.404 75.538 268.004 75.802C268.616 76.066 269.132 76.42 269.552 76.864C269.984 77.308 270.308 77.824 270.524 78.412C270.752 79 270.866 79.612 270.866 80.248C270.866 80.404 270.86 80.554 270.848 80.698C270.848 80.842 270.836 80.962 270.812 81.058H263.522C263.558 81.43 263.648 81.76 263.792 82.048C263.936 82.336 264.122 82.582 264.35 82.786C264.578 82.99 264.836 83.146 265.124 83.254C265.412 83.362 265.712 83.416 266.024 83.416C266.504 83.416 266.954 83.302 267.374 83.074C267.806 82.834 268.1 82.522 268.256 82.138L270.326 82.714C269.978 83.434 269.42 84.028 268.652 84.496C267.896 84.952 266.99 85.18 265.934 85.18ZM268.382 79.492C268.322 78.784 268.058 78.22 267.59 77.8C267.134 77.368 266.576 77.152 265.916 77.152C265.592 77.152 265.286 77.212 264.998 77.332C264.722 77.44 264.476 77.596 264.26 77.8C264.044 78.004 263.864 78.25 263.72 78.538C263.588 78.826 263.51 79.144 263.486 79.492H268.382ZM275.159 85.18C274.703 85.18 274.277 85.108 273.881 84.964C273.485 84.808 273.143 84.598 272.855 84.334C272.567 84.058 272.339 83.74 272.171 83.38C272.015 83.02 271.937 82.624 271.937 82.192C271.937 81.748 272.033 81.34 272.225 80.968C272.429 80.584 272.705 80.26 273.053 79.996C273.413 79.732 273.839 79.528 274.331 79.384C274.823 79.228 275.363 79.15 275.951 79.15C276.371 79.15 276.779 79.186 277.175 79.258C277.583 79.33 277.943 79.432 278.255 79.564V79.024C278.255 78.4 278.075 77.92 277.715 77.584C277.367 77.248 276.845 77.08 276.149 77.08C275.645 77.08 275.153 77.17 274.673 77.35C274.193 77.53 273.701 77.794 273.197 78.142L272.459 76.612C273.671 75.808 274.979 75.406 276.383 75.406C277.739 75.406 278.789 75.742 279.533 76.414C280.289 77.074 280.667 78.034 280.667 79.294V82.228C280.667 82.48 280.709 82.66 280.793 82.768C280.889 82.876 281.039 82.936 281.243 82.948V85C280.835 85.084 280.481 85.126 280.181 85.126C279.725 85.126 279.371 85.024 279.119 84.82C278.879 84.616 278.729 84.346 278.669 84.01L278.615 83.488C278.195 84.04 277.685 84.46 277.085 84.748C276.485 85.036 275.843 85.18 275.159 85.18ZM275.843 83.416C276.251 83.416 276.635 83.344 276.995 83.2C277.367 83.056 277.655 82.864 277.859 82.624C278.123 82.42 278.255 82.192 278.255 81.94V80.86C277.967 80.752 277.655 80.668 277.319 80.608C276.983 80.536 276.659 80.5 276.347 80.5C275.723 80.5 275.213 80.644 274.817 80.932C274.421 81.208 274.223 81.562 274.223 81.994C274.223 82.402 274.379 82.744 274.691 83.02C275.003 83.284 275.387 83.416 275.843 83.416ZM288.787 77.656C288.055 77.668 287.401 77.812 286.825 78.088C286.249 78.352 285.835 78.754 285.583 79.294V85H283.171V75.568H285.385V77.584C285.553 77.26 285.751 76.972 285.979 76.72C286.207 76.456 286.453 76.228 286.717 76.036C286.981 75.844 287.245 75.7 287.509 75.604C287.785 75.496 288.049 75.442 288.301 75.442C288.433 75.442 288.529 75.442 288.589 75.442C288.661 75.442 288.727 75.448 288.787 75.46V77.656Z" fill="black" fill-opacity="0.87"/>
<path d="M420.123 72.9282C420.893 72.9282 421.374 73.7615 420.989 74.4282L415.793 83.4282C415.408 84.0949 414.446 84.0949 414.061 83.4282L408.865 74.4282C408.48 73.7615 408.961 72.9282 409.731 72.9282L420.123 72.9282Z" fill="#C4C4C4"/>
<g filter="url(#filter1_d)">
<rect x="233.102" width="203.899" height="44.7147" rx="5" fill="white"/>
</g>
<path d="M260.889 18.398H256.803V29H254.337V18.398H250.251V16.22H260.889V18.398ZM263.079 29.18C262.623 29.18 262.197 29.108 261.801 28.964C261.405 28.808 261.063 28.598 260.775 28.334C260.487 28.058 260.259 27.74 260.091 27.38C259.935 27.02 259.857 26.624 259.857 26.192C259.857 25.748 259.953 25.34 260.145 24.968C260.349 24.584 260.625 24.26 260.973 23.996C261.333 23.732 261.759 23.528 262.251 23.384C262.743 23.228 263.283 23.15 263.871 23.15C264.291 23.15 264.699 23.186 265.095 23.258C265.503 23.33 265.863 23.432 266.175 23.564V23.024C266.175 22.4 265.995 21.92 265.635 21.584C265.287 21.248 264.765 21.08 264.069 21.08C263.565 21.08 263.073 21.17 262.593 21.35C262.113 21.53 261.621 21.794 261.117 22.142L260.379 20.612C261.591 19.808 262.899 19.406 264.303 19.406C265.659 19.406 266.709 19.742 267.453 20.414C268.209 21.074 268.587 22.034 268.587 23.294V26.228C268.587 26.48 268.629 26.66 268.713 26.768C268.809 26.876 268.959 26.936 269.163 26.948V29C268.755 29.084 268.401 29.126 268.101 29.126C267.645 29.126 267.291 29.024 267.039 28.82C266.799 28.616 266.649 28.346 266.589 28.01L266.535 27.488C266.115 28.04 265.605 28.46 265.005 28.748C264.405 29.036 263.763 29.18 263.079 29.18ZM263.763 27.416C264.171 27.416 264.555 27.344 264.915 27.2C265.287 27.056 265.575 26.864 265.779 26.624C266.043 26.42 266.175 26.192 266.175 25.94V24.86C265.887 24.752 265.575 24.668 265.239 24.608C264.903 24.536 264.579 24.5 264.267 24.5C263.643 24.5 263.133 24.644 262.737 24.932C262.341 25.208 262.143 25.562 262.143 25.994C262.143 26.402 262.299 26.744 262.611 27.02C262.923 27.284 263.307 27.416 263.763 27.416ZM274.781 29.054C274.145 29.054 273.569 28.928 273.053 28.676C272.537 28.424 272.087 28.082 271.703 27.65C271.331 27.206 271.043 26.696 270.839 26.12C270.635 25.544 270.533 24.932 270.533 24.284C270.533 23.6 270.641 22.964 270.857 22.376C271.073 21.788 271.373 21.272 271.757 20.828C272.141 20.384 272.603 20.036 273.143 19.784C273.683 19.532 274.277 19.406 274.925 19.406C275.657 19.406 276.299 19.574 276.851 19.91C277.403 20.234 277.859 20.672 278.219 21.224V19.568H280.325V28.55C280.325 29.246 280.193 29.87 279.929 30.422C279.665 30.974 279.299 31.442 278.831 31.826C278.375 32.21 277.823 32.504 277.175 32.708C276.539 32.912 275.843 33.014 275.087 33.014C274.055 33.014 273.185 32.84 272.477 32.492C271.781 32.156 271.181 31.676 270.677 31.052L271.991 29.774C272.351 30.218 272.801 30.566 273.341 30.818C273.893 31.07 274.475 31.196 275.087 31.196C275.459 31.196 275.813 31.142 276.149 31.034C276.497 30.938 276.803 30.782 277.067 30.566C277.331 30.35 277.535 30.074 277.679 29.738C277.835 29.402 277.913 29.006 277.913 28.55V27.362C277.601 27.902 277.163 28.322 276.599 28.622C276.035 28.91 275.429 29.054 274.781 29.054ZM275.591 27.128C275.855 27.128 276.107 27.086 276.347 27.002C276.587 26.918 276.809 26.804 277.013 26.66C277.217 26.516 277.397 26.348 277.553 26.156C277.709 25.964 277.829 25.76 277.913 25.544V23.294C277.697 22.742 277.355 22.298 276.887 21.962C276.431 21.626 275.951 21.458 275.447 21.458C275.075 21.458 274.739 21.542 274.439 21.71C274.139 21.866 273.881 22.082 273.665 22.358C273.449 22.622 273.281 22.928 273.161 23.276C273.053 23.624 272.999 23.984 272.999 24.356C272.999 24.74 273.065 25.1 273.197 25.436C273.329 25.772 273.509 26.066 273.737 26.318C273.977 26.57 274.253 26.768 274.565 26.912C274.877 27.056 275.219 27.128 275.591 27.128ZM286.313 29.18C285.521 29.18 284.747 29.054 283.991 28.802C283.235 28.55 282.587 28.19 282.047 27.722L282.947 26.21C283.523 26.618 284.081 26.93 284.621 27.146C285.173 27.35 285.719 27.452 286.259 27.452C286.739 27.452 287.117 27.362 287.393 27.182C287.669 27.002 287.807 26.744 287.807 26.408C287.807 26.072 287.645 25.826 287.321 25.67C286.997 25.514 286.469 25.334 285.737 25.13C285.125 24.962 284.603 24.8 284.171 24.644C283.739 24.488 283.391 24.314 283.127 24.122C282.863 23.918 282.671 23.69 282.551 23.438C282.431 23.174 282.371 22.862 282.371 22.502C282.371 22.022 282.461 21.59 282.641 21.206C282.833 20.822 283.097 20.498 283.433 20.234C283.769 19.958 284.159 19.748 284.603 19.604C285.059 19.46 285.551 19.388 286.079 19.388C286.787 19.388 287.447 19.49 288.059 19.694C288.683 19.898 289.253 20.228 289.769 20.684L288.797 22.142C288.317 21.782 287.849 21.518 287.393 21.35C286.949 21.182 286.505 21.098 286.061 21.098C285.653 21.098 285.311 21.182 285.035 21.35C284.759 21.518 284.621 21.788 284.621 22.16C284.621 22.328 284.651 22.466 284.711 22.574C284.783 22.682 284.891 22.778 285.035 22.862C285.179 22.946 285.365 23.03 285.593 23.114C285.833 23.186 286.127 23.264 286.475 23.348C287.123 23.516 287.675 23.684 288.131 23.852C288.599 24.02 288.977 24.212 289.265 24.428C289.565 24.644 289.781 24.896 289.913 25.184C290.057 25.46 290.129 25.796 290.129 26.192C290.129 27.116 289.787 27.848 289.103 28.388C288.419 28.916 287.489 29.18 286.313 29.18Z" fill="black" fill-opacity="0.87"/>
<path d="M420.123 18.9282C420.893 18.9282 421.374 19.7615 420.989 20.4282L415.793 29.4282C415.408 30.0949 414.446 30.0949 414.061 29.4282L408.865 20.4282C408.48 19.7615 408.961 18.9282 409.731 18.9282L420.123 18.9282Z" fill="#C4C4C4"/>
<g filter="url(#filter2_d)">
<rect x="4" y="55.1289" width="203.899" height="44.7146" rx="5" fill="white"/>
</g>
<path d="M22.331 85V72.22H24.815V82.822H31.331V85H22.331ZM36.828 85.18C36.06 85.18 35.37 85.048 34.758 84.784C34.146 84.52 33.624 84.166 33.192 83.722C32.772 83.266 32.448 82.744 32.22 82.156C31.992 81.568 31.878 80.95 31.878 80.302C31.878 79.642 31.992 79.018 32.22 78.43C32.448 77.842 32.772 77.326 33.192 76.882C33.624 76.426 34.146 76.066 34.758 75.802C35.37 75.538 36.06 75.406 36.828 75.406C37.596 75.406 38.28 75.538 38.88 75.802C39.492 76.066 40.008 76.426 40.428 76.882C40.86 77.326 41.19 77.842 41.418 78.43C41.646 79.018 41.76 79.642 41.76 80.302C41.76 80.95 41.646 81.568 41.418 82.156C41.19 82.744 40.866 83.266 40.446 83.722C40.026 84.166 39.51 84.52 38.898 84.784C38.286 85.048 37.596 85.18 36.828 85.18ZM34.362 80.302C34.362 80.722 34.422 81.106 34.542 81.454C34.674 81.79 34.848 82.084 35.064 82.336C35.292 82.588 35.556 82.786 35.856 82.93C36.156 83.062 36.48 83.128 36.828 83.128C37.176 83.128 37.5 83.062 37.8 82.93C38.1 82.786 38.358 82.588 38.574 82.336C38.802 82.084 38.976 81.784 39.096 81.436C39.228 81.088 39.294 80.704 39.294 80.284C39.294 79.876 39.228 79.498 39.096 79.15C38.976 78.802 38.802 78.502 38.574 78.25C38.358 77.998 38.1 77.806 37.8 77.674C37.5 77.53 37.176 77.458 36.828 77.458C36.48 77.458 36.156 77.53 35.856 77.674C35.556 77.818 35.292 78.016 35.064 78.268C34.848 78.52 34.674 78.82 34.542 79.168C34.422 79.516 34.362 79.894 34.362 80.302ZM43.044 80.284C43.044 79.624 43.158 79 43.386 78.412C43.614 77.824 43.944 77.308 44.376 76.864C44.808 76.42 45.33 76.066 45.942 75.802C46.554 75.538 47.244 75.406 48.012 75.406C49.044 75.406 49.92 75.628 50.64 76.072C51.372 76.516 51.918 77.098 52.278 77.818L49.92 78.538C49.716 78.19 49.446 77.926 49.11 77.746C48.774 77.554 48.402 77.458 47.994 77.458C47.646 77.458 47.322 77.53 47.022 77.674C46.722 77.806 46.458 77.998 46.23 78.25C46.014 78.49 45.84 78.784 45.708 79.132C45.588 79.48 45.528 79.864 45.528 80.284C45.528 80.704 45.594 81.088 45.726 81.436C45.858 81.784 46.032 82.084 46.248 82.336C46.476 82.588 46.74 82.786 47.04 82.93C47.34 83.062 47.658 83.128 47.994 83.128C48.426 83.128 48.822 83.02 49.182 82.804C49.554 82.588 49.812 82.324 49.956 82.012L52.314 82.732C51.99 83.452 51.456 84.04 50.712 84.496C49.968 84.952 49.074 85.18 48.03 85.18C47.262 85.18 46.572 85.048 45.96 84.784C45.348 84.52 44.826 84.166 44.394 83.722C43.962 83.266 43.626 82.744 43.386 82.156C43.158 81.556 43.044 80.932 43.044 80.284ZM56.6222 85.18C56.1662 85.18 55.7402 85.108 55.3442 84.964C54.9482 84.808 54.6062 84.598 54.3182 84.334C54.0302 84.058 53.8022 83.74 53.6342 83.38C53.4782 83.02 53.4002 82.624 53.4002 82.192C53.4002 81.748 53.4962 81.34 53.6882 80.968C53.8922 80.584 54.1682 80.26 54.5162 79.996C54.8762 79.732 55.3022 79.528 55.7942 79.384C56.2862 79.228 56.8262 79.15 57.4142 79.15C57.8342 79.15 58.2422 79.186 58.6382 79.258C59.0462 79.33 59.4062 79.432 59.7182 79.564V79.024C59.7182 78.4 59.5382 77.92 59.1782 77.584C58.8302 77.248 58.3082 77.08 57.6122 77.08C57.1082 77.08 56.6162 77.17 56.1362 77.35C55.6562 77.53 55.1642 77.794 54.6602 78.142L53.9222 76.612C55.1342 75.808 56.4422 75.406 57.8462 75.406C59.2022 75.406 60.2522 75.742 60.9962 76.414C61.7522 77.074 62.1302 78.034 62.1302 79.294V82.228C62.1302 82.48 62.1722 82.66 62.2562 82.768C62.3522 82.876 62.5022 82.936 62.7062 82.948V85C62.2982 85.084 61.9442 85.126 61.6442 85.126C61.1882 85.126 60.8342 85.024 60.5822 84.82C60.3422 84.616 60.1922 84.346 60.1322 84.01L60.0782 83.488C59.6582 84.04 59.1482 84.46 58.5482 84.748C57.9482 85.036 57.3062 85.18 56.6222 85.18ZM57.3062 83.416C57.7142 83.416 58.0982 83.344 58.4582 83.2C58.8302 83.056 59.1182 82.864 59.3222 82.624C59.5862 82.42 59.7182 82.192 59.7182 81.94V80.86C59.4302 80.752 59.1182 80.668 58.7822 80.608C58.4462 80.536 58.1222 80.5 57.8102 80.5C57.1862 80.5 56.6762 80.644 56.2802 80.932C55.8842 81.208 55.6862 81.562 55.6862 81.994C55.6862 82.402 55.8422 82.744 56.1542 83.02C56.4662 83.284 56.8502 83.416 57.3062 83.416ZM70.2158 84.514C69.8918 84.658 69.4958 84.802 69.0278 84.946C68.5598 85.09 68.0678 85.162 67.5518 85.162C67.2158 85.162 66.8978 85.12 66.5978 85.036C66.3098 84.952 66.0518 84.82 65.8238 84.64C65.6078 84.448 65.4338 84.208 65.3018 83.92C65.1698 83.62 65.1038 83.26 65.1038 82.84V77.422H63.8618V75.568H65.1038V72.508H67.5158V75.568H69.4958V77.422H67.5158V82.03C67.5158 82.366 67.5998 82.606 67.7678 82.75C67.9478 82.882 68.1638 82.948 68.4158 82.948C68.6678 82.948 68.9138 82.906 69.1538 82.822C69.3938 82.738 69.5858 82.666 69.7298 82.606L70.2158 84.514ZM71.722 85V75.568H74.134V85H71.722ZM71.722 74.254V71.86H74.134V74.254H71.722ZM80.9159 85.18C80.1479 85.18 79.4579 85.048 78.8459 84.784C78.2339 84.52 77.7119 84.166 77.2799 83.722C76.8599 83.266 76.5359 82.744 76.3079 82.156C76.0799 81.568 75.9659 80.95 75.9659 80.302C75.9659 79.642 76.0799 79.018 76.3079 78.43C76.5359 77.842 76.8599 77.326 77.2799 76.882C77.7119 76.426 78.2339 76.066 78.8459 75.802C79.4579 75.538 80.1479 75.406 80.9159 75.406C81.6839 75.406 82.3679 75.538 82.9679 75.802C83.5799 76.066 84.0959 76.426 84.5159 76.882C84.9479 77.326 85.2779 77.842 85.5059 78.43C85.7339 79.018 85.8479 79.642 85.8479 80.302C85.8479 80.95 85.7339 81.568 85.5059 82.156C85.2779 82.744 84.9539 83.266 84.5339 83.722C84.1139 84.166 83.5979 84.52 82.9859 84.784C82.3739 85.048 81.6839 85.18 80.9159 85.18ZM78.4499 80.302C78.4499 80.722 78.5099 81.106 78.6299 81.454C78.7619 81.79 78.9359 82.084 79.1519 82.336C79.3799 82.588 79.6439 82.786 79.9439 82.93C80.2439 83.062 80.5679 83.128 80.9159 83.128C81.2639 83.128 81.5879 83.062 81.8879 82.93C82.1879 82.786 82.4459 82.588 82.6619 82.336C82.8899 82.084 83.0639 81.784 83.1839 81.436C83.3159 81.088 83.3819 80.704 83.3819 80.284C83.3819 79.876 83.3159 79.498 83.1839 79.15C83.0639 78.802 82.8899 78.502 82.6619 78.25C82.4459 77.998 82.1879 77.806 81.8879 77.674C81.5879 77.53 81.2639 77.458 80.9159 77.458C80.5679 77.458 80.2439 77.53 79.9439 77.674C79.6439 77.818 79.3799 78.016 79.1519 78.268C78.9359 78.52 78.7619 78.82 78.6299 79.168C78.5099 79.516 78.4499 79.894 78.4499 80.302ZM96.4919 85H94.0799V79.708C94.0799 78.952 93.9479 78.4 93.6839 78.052C93.4199 77.704 93.0539 77.53 92.5859 77.53C92.3459 77.53 92.0999 77.578 91.8479 77.674C91.5959 77.77 91.3559 77.908 91.1279 78.088C90.9119 78.256 90.7139 78.46 90.5339 78.7C90.3539 78.94 90.2219 79.204 90.1379 79.492V85H87.7259V75.568H89.9039V77.314C90.2519 76.714 90.7559 76.246 91.4159 75.91C92.0759 75.574 92.8199 75.406 93.6479 75.406C94.2359 75.406 94.7159 75.514 95.0879 75.73C95.4599 75.946 95.7479 76.228 95.9519 76.576C96.1559 76.924 96.2939 77.32 96.3659 77.764C96.4499 78.208 96.4919 78.658 96.4919 79.114V85Z" fill="black" fill-opacity="0.87"/>
<path d="M189.123 72.9282C189.893 72.9282 190.374 73.7615 189.989 74.4282L184.793 83.4282C184.408 84.0949 183.446 84.0949 183.061 83.4282L177.865 74.4282C177.48 73.7615 177.961 72.9282 178.731 72.9282L189.123 72.9282Z" fill="#C4C4C4"/>
<g filter="url(#filter3_d)">
<rect x="4" width="203.899" height="44.7147" rx="5" fill="white"/>
</g>
<path d="M21.557 22.52C21.557 21.74 21.695 20.972 21.971 20.216C22.259 19.448 22.673 18.764 23.213 18.164C23.753 17.564 24.413 17.078 25.193 16.706C25.973 16.334 26.861 16.148 27.857 16.148C29.033 16.148 30.047 16.406 30.899 16.922C31.763 17.438 32.405 18.11 32.825 18.938L30.917 20.252C30.749 19.892 30.545 19.592 30.305 19.352C30.065 19.1 29.807 18.902 29.531 18.758C29.255 18.614 28.967 18.512 28.667 18.452C28.367 18.38 28.073 18.344 27.785 18.344C27.161 18.344 26.615 18.47 26.147 18.722C25.691 18.974 25.307 19.304 24.995 19.712C24.695 20.108 24.467 20.564 24.311 21.08C24.155 21.584 24.077 22.088 24.077 22.592C24.077 23.156 24.167 23.702 24.347 24.23C24.527 24.746 24.779 25.202 25.103 25.598C25.439 25.994 25.835 26.312 26.291 26.552C26.759 26.792 27.269 26.912 27.821 26.912C28.109 26.912 28.409 26.876 28.721 26.804C29.033 26.732 29.327 26.618 29.603 26.462C29.891 26.306 30.155 26.108 30.395 25.868C30.635 25.616 30.827 25.316 30.971 24.968L33.005 26.138C32.801 26.618 32.507 27.044 32.123 27.416C31.751 27.776 31.325 28.082 30.845 28.334C30.377 28.586 29.873 28.778 29.333 28.91C28.793 29.042 28.265 29.108 27.749 29.108C26.837 29.108 26.003 28.916 25.247 28.532C24.491 28.148 23.837 27.65 23.285 27.038C22.745 26.414 22.319 25.712 22.007 24.932C21.707 24.14 21.557 23.336 21.557 22.52ZM37.2609 29.18C36.8049 29.18 36.3789 29.108 35.9829 28.964C35.5869 28.808 35.2449 28.598 34.9569 28.334C34.6689 28.058 34.4409 27.74 34.2729 27.38C34.1169 27.02 34.0389 26.624 34.0389 26.192C34.0389 25.748 34.1349 25.34 34.3269 24.968C34.5309 24.584 34.8069 24.26 35.1549 23.996C35.5149 23.732 35.9409 23.528 36.4329 23.384C36.9249 23.228 37.4649 23.15 38.0529 23.15C38.4729 23.15 38.8809 23.186 39.2769 23.258C39.6849 23.33 40.0449 23.432 40.3569 23.564V23.024C40.3569 22.4 40.1769 21.92 39.8169 21.584C39.4689 21.248 38.9469 21.08 38.2509 21.08C37.7469 21.08 37.2549 21.17 36.7749 21.35C36.2949 21.53 35.8029 21.794 35.2989 22.142L34.5609 20.612C35.7729 19.808 37.0809 19.406 38.4849 19.406C39.8409 19.406 40.8909 19.742 41.6349 20.414C42.3909 21.074 42.7689 22.034 42.7689 23.294V26.228C42.7689 26.48 42.8109 26.66 42.8949 26.768C42.9909 26.876 43.1409 26.936 43.3449 26.948V29C42.9369 29.084 42.5829 29.126 42.2829 29.126C41.8269 29.126 41.4729 29.024 41.2209 28.82C40.9809 28.616 40.8309 28.346 40.7709 28.01L40.7169 27.488C40.2969 28.04 39.7869 28.46 39.1869 28.748C38.5869 29.036 37.9449 29.18 37.2609 29.18ZM37.9449 27.416C38.3529 27.416 38.7369 27.344 39.0969 27.2C39.4689 27.056 39.7569 26.864 39.9609 26.624C40.2249 26.42 40.3569 26.192 40.3569 25.94V24.86C40.0689 24.752 39.7569 24.668 39.4209 24.608C39.0849 24.536 38.7609 24.5 38.4489 24.5C37.8249 24.5 37.3149 24.644 36.9189 24.932C36.5229 25.208 36.3249 25.562 36.3249 25.994C36.3249 26.402 36.4809 26.744 36.7929 27.02C37.1049 27.284 37.4889 27.416 37.9449 27.416ZM50.8545 28.514C50.5305 28.658 50.1345 28.802 49.6665 28.946C49.1985 29.09 48.7065 29.162 48.1905 29.162C47.8545 29.162 47.5365 29.12 47.2365 29.036C46.9485 28.952 46.6905 28.82 46.4625 28.64C46.2465 28.448 46.0725 28.208 45.9405 27.92C45.8085 27.62 45.7425 27.26 45.7425 26.84V21.422H44.5005V19.568H45.7425V16.508H48.1545V19.568H50.1345V21.422H48.1545V26.03C48.1545 26.366 48.2385 26.606 48.4065 26.75C48.5865 26.882 48.8025 26.948 49.0545 26.948C49.3065 26.948 49.5525 26.906 49.7925 26.822C50.0325 26.738 50.2245 26.666 50.3685 26.606L50.8545 28.514ZM56.5062 29.18C55.7502 29.18 55.0662 29.054 54.4542 28.802C53.8422 28.538 53.3202 28.184 52.8882 27.74C52.4562 27.296 52.1202 26.78 51.8802 26.192C51.6522 25.604 51.5382 24.986 51.5382 24.338C51.5382 23.666 51.6522 23.036 51.8802 22.448C52.1082 21.848 52.4382 21.326 52.8702 20.882C53.3022 20.426 53.8242 20.066 54.4362 19.802C55.0602 19.538 55.7562 19.406 56.5242 19.406C57.2922 19.406 57.9762 19.538 58.5762 19.802C59.1882 20.066 59.7042 20.42 60.1242 20.864C60.5562 21.308 60.8802 21.824 61.0962 22.412C61.3242 23 61.4382 23.612 61.4382 24.248C61.4382 24.404 61.4322 24.554 61.4202 24.698C61.4202 24.842 61.4082 24.962 61.3842 25.058H54.0942C54.1302 25.43 54.2202 25.76 54.3642 26.048C54.5082 26.336 54.6942 26.582 54.9222 26.786C55.1502 26.99 55.4082 27.146 55.6962 27.254C55.9842 27.362 56.2842 27.416 56.5962 27.416C57.0762 27.416 57.5262 27.302 57.9462 27.074C58.3782 26.834 58.6722 26.522 58.8282 26.138L60.8982 26.714C60.5502 27.434 59.9922 28.028 59.2242 28.496C58.4682 28.952 57.5622 29.18 56.5062 29.18ZM58.9542 23.492C58.8942 22.784 58.6302 22.22 58.1622 21.8C57.7062 21.368 57.1482 21.152 56.4882 21.152C56.1642 21.152 55.8582 21.212 55.5702 21.332C55.2942 21.44 55.0482 21.596 54.8322 21.8C54.6162 22.004 54.4362 22.25 54.2922 22.538C54.1602 22.826 54.0822 23.144 54.0582 23.492H58.9542ZM66.8476 29.054C66.2116 29.054 65.6356 28.928 65.1196 28.676C64.6036 28.424 64.1536 28.082 63.7696 27.65C63.3976 27.206 63.1096 26.696 62.9056 26.12C62.7016 25.544 62.5996 24.932 62.5996 24.284C62.5996 23.6 62.7076 22.964 62.9236 22.376C63.1396 21.788 63.4396 21.272 63.8236 20.828C64.2076 20.384 64.6696 20.036 65.2096 19.784C65.7496 19.532 66.3436 19.406 66.9916 19.406C67.7236 19.406 68.3656 19.574 68.9176 19.91C69.4696 20.234 69.9256 20.672 70.2856 21.224V19.568H72.3916V28.55C72.3916 29.246 72.2596 29.87 71.9956 30.422C71.7316 30.974 71.3656 31.442 70.8976 31.826C70.4416 32.21 69.8896 32.504 69.2416 32.708C68.6056 32.912 67.9096 33.014 67.1536 33.014C66.1216 33.014 65.2516 32.84 64.5436 32.492C63.8476 32.156 63.2476 31.676 62.7436 31.052L64.0576 29.774C64.4176 30.218 64.8676 30.566 65.4076 30.818C65.9596 31.07 66.5416 31.196 67.1536 31.196C67.5256 31.196 67.8796 31.142 68.2156 31.034C68.5636 30.938 68.8696 30.782 69.1336 30.566C69.3976 30.35 69.6016 30.074 69.7456 29.738C69.9016 29.402 69.9796 29.006 69.9796 28.55V27.362C69.6676 27.902 69.2296 28.322 68.6656 28.622C68.1016 28.91 67.4956 29.054 66.8476 29.054ZM67.6576 27.128C67.9216 27.128 68.1736 27.086 68.4136 27.002C68.6536 26.918 68.8756 26.804 69.0796 26.66C69.2836 26.516 69.4636 26.348 69.6196 26.156C69.7756 25.964 69.8956 25.76 69.9796 25.544V23.294C69.7636 22.742 69.4216 22.298 68.9536 21.962C68.4976 21.626 68.0176 21.458 67.5136 21.458C67.1416 21.458 66.8056 21.542 66.5056 21.71C66.2056 21.866 65.9476 22.082 65.7316 22.358C65.5156 22.622 65.3476 22.928 65.2276 23.276C65.1196 23.624 65.0656 23.984 65.0656 24.356C65.0656 24.74 65.1316 25.1 65.2636 25.436C65.3956 25.772 65.5756 26.066 65.8036 26.318C66.0436 26.57 66.3196 26.768 66.6316 26.912C66.9436 27.056 67.2856 27.128 67.6576 27.128ZM79.1718 29.18C78.4038 29.18 77.7138 29.048 77.1018 28.784C76.4898 28.52 75.9678 28.166 75.5358 27.722C75.1158 27.266 74.7918 26.744 74.5638 26.156C74.3358 25.568 74.2218 24.95 74.2218 24.302C74.2218 23.642 74.3358 23.018 74.5638 22.43C74.7918 21.842 75.1158 21.326 75.5358 20.882C75.9678 20.426 76.4898 20.066 77.1018 19.802C77.7138 19.538 78.4038 19.406 79.1718 19.406C79.9398 19.406 80.6238 19.538 81.2238 19.802C81.8358 20.066 82.3518 20.426 82.7718 20.882C83.2038 21.326 83.5338 21.842 83.7618 22.43C83.9898 23.018 84.1038 23.642 84.1038 24.302C84.1038 24.95 83.9898 25.568 83.7618 26.156C83.5338 26.744 83.2098 27.266 82.7898 27.722C82.3698 28.166 81.8538 28.52 81.2418 28.784C80.6298 29.048 79.9398 29.18 79.1718 29.18ZM76.7058 24.302C76.7058 24.722 76.7658 25.106 76.8858 25.454C77.0178 25.79 77.1918 26.084 77.4078 26.336C77.6358 26.588 77.8998 26.786 78.1998 26.93C78.4998 27.062 78.8238 27.128 79.1718 27.128C79.5198 27.128 79.8438 27.062 80.1438 26.93C80.4438 26.786 80.7018 26.588 80.9178 26.336C81.1458 26.084 81.3198 25.784 81.4398 25.436C81.5718 25.088 81.6378 24.704 81.6378 24.284C81.6378 23.876 81.5718 23.498 81.4398 23.15C81.3198 22.802 81.1458 22.502 80.9178 22.25C80.7018 21.998 80.4438 21.806 80.1438 21.674C79.8438 21.53 79.5198 21.458 79.1718 21.458C78.8238 21.458 78.4998 21.53 78.1998 21.674C77.8998 21.818 77.6358 22.016 77.4078 22.268C77.1918 22.52 77.0178 22.82 76.8858 23.168C76.7658 23.516 76.7058 23.894 76.7058 24.302ZM91.5978 21.656C90.8658 21.668 90.2118 21.812 89.6358 22.088C89.0598 22.352 88.6458 22.754 88.3938 23.294V29H85.9818V19.568H88.1958V21.584C88.3638 21.26 88.5618 20.972 88.7898 20.72C89.0178 20.456 89.2638 20.228 89.5278 20.036C89.7918 19.844 90.0558 19.7 90.3198 19.604C90.5958 19.496 90.8598 19.442 91.1118 19.442C91.2438 19.442 91.3398 19.442 91.3998 19.442C91.4718 19.442 91.5378 19.448 91.5978 19.46V21.656ZM93.3907 30.836C93.5947 30.896 93.7927 30.938 93.9847 30.962C94.1767 30.998 94.3387 31.016 94.4707 31.016C94.6267 31.016 94.7707 30.986 94.9027 30.926C95.0347 30.866 95.1547 30.758 95.2627 30.602C95.3707 30.458 95.4787 30.254 95.5867 29.99C95.6947 29.726 95.8087 29.396 95.9287 29L92.2027 19.568H94.6867L97.2427 26.912L99.5107 19.568H101.779L97.8187 30.872C97.5907 31.532 97.2007 32.072 96.6487 32.492C96.0967 32.912 95.4127 33.122 94.5967 33.122C94.4047 33.122 94.2067 33.104 94.0027 33.068C93.8107 33.044 93.6067 32.996 93.3907 32.924V30.836Z" fill="black" fill-opacity="0.87"/>
<path d="M189.123 18.9282C189.893 18.9282 190.374 19.7615 189.989 20.4282L184.793 29.4282C184.408 30.0949 183.446 30.0949 183.061 29.4282L177.865 20.4282C177.48 19.7615 177.961 18.9282 178.731 18.9282L189.123 18.9282Z" fill="#C4C4C4"/>
<defs>
<filter id="filter0_d" x="229.102" y="55.3398" width="211.899" height="52.7146" filterUnits="userSpaceOnUse" color-interpolation-filters="sRGB">
<feFlood flood-opacity="0" result="BackgroundImageFix"/>
<feColorMatrix in="SourceAlpha" type="matrix" values="0 0 0 0 0 0 0 0 0 0 0 0 0 0 0 0 0 0 127 0"/>
<feOffset dy="4"/>
<feGaussianBlur stdDeviation="2"/>
<feColorMatrix type="matrix" values="0 0 0 0 0 0 0 0 0 0 0 0 0 0 0 0 0 0 0.25 0"/>
<feBlend mode="normal" in2="BackgroundImageFix" result="effect1_dropShadow"/>
<feBlend mode="normal" in="SourceGraphic" in2="effect1_dropShadow" result="shape"/>
</filter>
<filter id="filter1_d" x="229.102" y="0" width="211.899" height="52.7147" filterUnits="userSpaceOnUse" color-interpolation-filters="sRGB">
<feFlood flood-opacity="0" result="BackgroundImageFix"/>
<feColorMatrix in="SourceAlpha" type="matrix" values="0 0 0 0 0 0 0 0 0 0 0 0 0 0 0 0 0 0 127 0"/>
<feOffset dy="4"/>
<feGaussianBlur stdDeviation="2"/>
<feColorMatrix type="matrix" values="0 0 0 0 0 0 0 0 0 0 0 0 0 0 0 0 0 0 0.25 0"/>
<feBlend mode="normal" in2="BackgroundImageFix" result="effect1_dropShadow"/>
<feBlend mode="normal" in="SourceGraphic" in2="effect1_dropShadow" result="shape"/>
</filter>
<filter id="filter2_d" x="0" y="55.1289" width="211.899" height="52.7146" filterUnits="userSpaceOnUse" color-interpolation-filters="sRGB">
<feFlood flood-opacity="0" result="BackgroundImageFix"/>
<feColorMatrix in="SourceAlpha" type="matrix" values="0 0 0 0 0 0 0 0 0 0 0 0 0 0 0 0 0 0 127 0"/>
<feOffset dy="4"/>
<feGaussianBlur stdDeviation="2"/>
<feColorMatrix type="matrix" values="0 0 0 0 0 0 0 0 0 0 0 0 0 0 0 0 0 0 0.25 0"/>
<feBlend mode="normal" in2="BackgroundImageFix" result="effect1_dropShadow"/>
<feBlend mode="normal" in="SourceGraphic" in2="effect1_dropShadow" result="shape"/>
</filter>
<filter id="filter3_d" x="0" y="0" width="211.899" height="52.7147" filterUnits="userSpaceOnUse" color-interpolation-filters="sRGB">
<feFlood flood-opacity="0" result="BackgroundImageFix"/>
<feColorMatrix in="SourceAlpha" type="matrix" values="0 0 0 0 0 0 0 0 0 0 0 0 0 0 0 0 0 0 127 0"/>
<feOffset dy="4"/>
<feGaussianBlur stdDeviation="2"/>
<feColorMatrix type="matrix" values="0 0 0 0 0 0 0 0 0 0 0 0 0 0 0 0 0 0 0.25 0"/>
<feBlend mode="normal" in2="BackgroundImageFix" result="effect1_dropShadow"/>
<feBlend mode="normal" in="SourceGraphic" in2="effect1_dropShadow" result="shape"/>
</filter>
</defs>
</svg>
